<?xml version="1.0" encoding="UTF-8"?>
<!DOCTYPE svg PUBLIC "-//W3C//DTD SVG 1.1//EN" "http://www.w3.org/Graphics/SVG/1.1/DTD/svg11.dtd">
<!-- Creator: CorelDRAW -->
<svg xmlns="http://www.w3.org/2000/svg" xml:space="preserve" width="6.82666in" height="6.82666in" style="shape-rendering:geometricPrecision; text-rendering:geometricPrecision; image-rendering:optimizeQuality; fill-rule:evenodd; clip-rule:evenodd"
viewBox="0 0 6.82666 6.82666"
 xmlns:xlink="http://www.w3.org/1999/xlink">
 <defs>
  <style type="text/css">
   <![CDATA[
    .fil1 {fill:none}
    .fil0 {fill:#ffffff;fill-rule:nonzero}
   ]]>
  </style>
 </defs>
 <g id="Layer_x0020_1">
  <metadata id="CorelCorpID_0Corel-Layer"/>
  <path class="fil0" d="M3.38828 1.93651c0.544579,0 1.03811,0.206547 1.3958,0.54048 0.359768,0.335878 0.582299,0.800201 0.582299,1.31334 0,0.513142 -0.222531,0.977465 -0.582299,1.31334 -0.357689,0.333933 -0.851224,0.54048 -1.3958,0.54048 -0.544583,0 -1.03812,-0.206547 -1.39581,-0.54048 -0.359768,-0.335878 -0.582299,-0.800201 -0.582299,-1.31334 0,-0.513142 0.222531,-0.977465 0.582299,-1.31334 0.357689,-0.333933 0.851224,-0.54048 1.39581,-0.54048zm1.2508 0.696315c-0.319634,-0.298406 -0.761827,-0.482976 -1.2508,-0.482976 -0.488976,0 -0.931173,0.184571 -1.25081,0.482976 -0.317543,0.296461 -0.513961,0.705724 -0.513961,1.15751 0,0.451783 0.196417,0.861047 0.513961,1.15751 0.319634,0.298406 0.761831,0.482976 1.25081,0.482976 0.488976,0 0.931169,-0.184571 1.2508,-0.482976 0.317543,-0.296461 0.513961,-0.705724 0.513961,-1.15751 0,-0.451783 -0.196417,-0.861047 -0.513961,-1.15751z"/>
  <path class="fil0" d="M5.40384 3.25157c0.155602,0 0.296988,0.0593543 0.399768,0.155311 0.104862,0.0978976 0.169728,0.233453 0.169728,0.383449 0,0.149996 -0.0648661,0.285555 -0.169728,0.383453 -0.102783,0.0959567 -0.244161,0.155307 -0.399768,0.155307 -0.0394252,0 -0.0793268,-0.00423622 -0.11911,-0.0122717 -0.0404409,-0.00816535 -0.0787047,-0.0200551 -0.114319,-0.0352126l-0.0833268 -0.0354646 0.0216575 -0.0878701c0.0144882,-0.0588031 0.0256299,-0.119559 0.0332008,-0.182087 0.00733071,-0.0605433 0.0111024,-0.122555 0.0111024,-0.185854 0,-0.0633031 -0.00377165,-0.125315 -0.0111024,-0.185858 -0.00757087,-0.0625236 -0.0187126,-0.12328 -0.0332008,-0.182083l-0.0216575 -0.0878701 0.0833268 -0.0354646c0.0356142,-0.0151575 0.073878,-0.0270472 0.114319,-0.0352126 0.0397835,-0.00803543 0.079685,-0.0122717 0.11911,-0.0122717zm0.254768 0.311146c-0.0647244,-0.0604291 -0.154768,-0.0978071 -0.254768,-0.0978071 -0.0239567,0 -0.0463425,0.00183465 -0.0670512,0.00533858 0.00677953,0.0362598 0.0123976,0.0726811 0.0168228,0.109224 0.00843307,0.0696496 0.0127717,0.14002 0.0127717,0.210858 0,0.0708346 -0.00433858,0.141205 -0.0127717,0.210854 -0.0044252,0.0365472 -0.0100433,0.0729646 -0.0168228,0.109228 0.0207087,0.00350394 0.0430945,0.00533858 0.0670512,0.00533858 0.1,0 0.190043,-0.037378 0.254768,-0.0978031 0.0626378,-0.0584803 0.10139,-0.13898 0.10139,-0.227618 0,-0.0886378 -0.038752,-0.169134 -0.10139,-0.227614z"/>
  <path class="fil0" d="M1.42283 3.25157c0.0302835,0 0.0603268,0.00232283 0.0899173,0.00676772 0.0290157,0.0043622 0.0582205,0.0111693 0.0873386,0.0202008l0.0968858 0.0300551 -0.0252205 0.0978622c-0.0159921,0.0620669 -0.0282441,0.125638 -0.0364606,0.190496 -0.00776772,0.0612677 -0.0117756,0.125756 -0.0117756,0.193378 0,0.0676181 0.00400787,0.132106 0.0117756,0.193382 0.00821654,0.0648583 0.0204685,0.128429 0.0364606,0.190496l0.0252205 0.0978622 -0.0968858 0.0300551c-0.029122,0.0090315 -0.0583189,0.0158346 -0.0873346,0.0201969 -0.0295906,0.00445276 -0.0596417,0.00676772 -0.0899213,0.00676772 -0.155606,0 -0.296984,-0.0593504 -0.399768,-0.155307 -0.104862,-0.0978976 -0.169728,-0.233457 -0.169728,-0.383453 0,-0.149996 0.0648661,-0.285551 0.169728,-0.383449 0.10278,-0.0959567 0.244165,-0.155311 0.399768,-0.155311zm0.0182087 0.21374c-0.00600394,-0.000267717 -0.0120748,-0.000401575 -0.0182087,-0.000401575 -0.1,0 -0.190043,0.037378 -0.254768,0.0978071 -0.0626378,0.0584803 -0.10139,0.138976 -0.10139,0.227614 0,0.0886378 0.038752,0.169138 0.10139,0.227618 0.0647244,0.0604252 0.154768,0.0978031 0.254768,0.0978031 0.00613386,0 0.0122047,-0.000133858 0.0182087,-0.000401575 -0.0065748,-0.0347008 -0.0121142,-0.0697008 -0.0165827,-0.104969 -0.00941732,-0.0742992 -0.0142795,-0.147776 -0.0142795,-0.220051 0,-0.0722756 0.0048622,-0.145752 0.0142795,-0.220047 0.0044685,-0.0352717 0.0100079,-0.0702717 0.0165827,-0.104972z"/>
  <path class="fil0" d="M4.30488 4.50674c-0.107587,0.261654 -0.302646,0.440701 -0.528819,0.535067 -0.122476,0.0511024 -0.254547,0.0771378 -0.387051,0.0777598 -0.13222,0.000622047 -0.264591,-0.0242677 -0.387957,-0.0749882 -0.224685,-0.0923898 -0.41935,-0.26952 -0.529374,-0.533209l-0.0611969 -0.146677 0.159531 -0.000409449 1.63653 -0.0042126 0.158807 -0.000409449 -0.0604724 0.147079zm-0.610488 0.338398c0.13076,-0.0545551 0.248264,-0.145472 0.33474,-0.272106l-1.2816 0.00329921c0.0871929,0.127843 0.204429,0.218154 0.334358,0.271579 0.0973189,0.0400118 0.201827,0.0596457 0.306287,0.0591535 0.104185,-0.000492126 0.208661,-0.0212205 0.306217,-0.0619252z"/>
  <path class="fil0" d="M3.54918 2.55407c-0.274083,0.024126 -0.53524,-0.0707165 -0.740197,-0.218012 -0.237299,-0.170535 -0.401543,-0.415799 -0.425878,-0.631941l0.211669 -0.0233307c0.0178898,0.158906 0.148374,0.346224 0.338374,0.482768 0.166921,0.119961 0.378098,0.197339 0.597701,0.178012l0.0183307 0.212504z"/>
  <path class="fil0" d="M3.34961 2.13226c-0.184461,-0.0613622 -0.299587,-0.184232 -0.372705,-0.330626 -0.0682638,-0.136673 -0.0978228,-0.292118 -0.113756,-0.433622l0.211669 -0.0233307c0.0136142,0.120909 0.0380787,0.252146 0.0929213,0.361953 0.0499882,0.100087 0.127075,0.183551 0.248539,0.223957l-0.0666693 0.201669z"/>
  <path class="fil0" d="M3.85644 2.20746c-0.315173,-0.104846 -0.330031,-0.452878 -0.342283,-0.740138 -0.00253937,-0.0595276 -0.00494882,-0.115957 -0.0106378,-0.166484l0.211669 -0.0233307c0.006,0.053315 0.00866929,0.115689 0.0114724,0.181484 0.00942126,0.220827 0.0208425,0.488382 0.196449,0.546799l-0.0666693 0.201669z"/>
  <g id="_321122368">
   <path id="_321122704" class="fil0" d="M4.12446 3.09333c0.0883543,0 0.168358,0.0358268 0.226264,0.0937362 0.0579094,0.0579055 0.0937362,0.137909 0.0937362,0.226264 0,0.0883543 -0.0358268,0.168358 -0.0937362,0.226264 -0.0579055,0.0579094 -0.137909,0.0937362 -0.226264,0.0937362 -0.0883504,0 -0.168354,-0.0358268 -0.226264,-0.0937362 -0.0579094,-0.0579055 -0.0937362,-0.137909 -0.0937362,-0.226264 0,-0.0883543 0.0358268,-0.168358 0.0937362,-0.226264 0.0579094,-0.0579094 0.137913,-0.0937362 0.226264,-0.0937362zm0.0754291 0.244571c-0.0192913,-0.0192953 -0.0459724,-0.0312323 -0.0754291,-0.0312323 -0.0294646,0 -0.0561378,0.0119409 -0.0754291,0.0312323 -0.0192953,0.0192913 -0.0312323,0.0459724 -0.0312323,0.0754291 0,0.0294567 0.011937,0.0561378 0.0312323,0.0754291 0.0192913,0.0192913 0.0459646,0.0312323 0.0754291,0.0312323 0.0294567,0 0.0561378,-0.011937 0.0754291,-0.0312323 0.0192953,-0.0192913 0.0312323,-0.0459724 0.0312323,-0.0754291 0,-0.0294567 -0.011937,-0.0561378 -0.0312323,-0.0754291z"/>
   <path id="_321122152" class="fil0" d="M2.63114 3.09333c0.0883504,0 0.168354,0.0358268 0.226264,0.0937362 0.0579094,0.0579055 0.0937362,0.137909 0.0937362,0.226264 0,0.0883543 -0.0358268,0.168358 -0.0937362,0.226264 -0.0579094,0.0579094 -0.137913,0.0937362 -0.226264,0.0937362 -0.0883543,0 -0.168358,-0.0358268 -0.226264,-0.0937362 -0.0579094,-0.0579055 -0.0937362,-0.137909 -0.0937362,-0.226264 0,-0.0883543 0.0358268,-0.168358 0.0937362,-0.226264 0.0579055,-0.0579094 0.137909,-0.0937362 0.226264,-0.0937362zm0.0754291 0.244571c-0.0192913,-0.0192913 -0.0459646,-0.0312323 -0.0754291,-0.0312323 -0.0294567,0 -0.0561378,0.011937 -0.0754291,0.0312323 -0.0192953,0.0192913 -0.0312323,0.0459724 -0.0312323,0.0754291 0,0.0294567 0.011937,0.0561378 0.0312323,0.0754291 0.0192913,0.0192953 0.0459724,0.0312323 0.0754291,0.0312323 0.0294646,0 0.0561378,-0.0119409 0.0754291,-0.0312323 0.0192953,-0.0192913 0.0312323,-0.0459724 0.0312323,-0.0754291 0,-0.0294567 -0.011937,-0.0561378 -0.0312323,-0.0754291z"/>
  </g>
  <g id="_321121456">
   <rect id="_321122728" class="fil1" width="6.82666" height="6.82666"/>
   <rect id="_321121672" class="fil1" x="0.853331" y="0.853331" width="5.12" height="5.12"/>
  </g>
 </g>
</svg>
