<?xml version="1.0" encoding="UTF-8"?>
<!DOCTYPE svg PUBLIC "-//W3C//DTD SVG 1.1//EN" "http://www.w3.org/Graphics/SVG/1.1/DTD/svg11.dtd">
<!-- Creator: CorelDRAW -->
<svg xmlns="http://www.w3.org/2000/svg" xml:space="preserve" width="6.82666in" height="6.82666in" style="shape-rendering:geometricPrecision; text-rendering:geometricPrecision; image-rendering:optimizeQuality; fill-rule:evenodd; clip-rule:evenodd"
viewBox="0 0 6.82666 6.82666"
 xmlns:xlink="http://www.w3.org/1999/xlink">
 <defs>
  <style type="text/css">
   <![CDATA[
    .fil1 {fill:none}
    .fil0 {fill:#ffffff;fill-rule:nonzero}
   ]]>
  </style>
 </defs>
 <g id="Layer_x0020_1">
  <metadata id="CorelCorpID_0Corel-Layer"/>
  <path class="fil0" d="M3.68242 1.95719l0.0100472 0.00142913 0.000417323 0 0.0100354 0.00148031 0.091252 0.0134606 0 0.028315 0.338547 0.072122 0.0166693 0.005c0.361846,0.141465 0.669366,0.380945 0.884724,0.683094 0.209933,0.294535 0.332268,0.648102 0.332268,1.02825 0,0.513142 -0.222531,0.977465 -0.582299,1.31334 -0.357689,0.333933 -0.851224,0.54048 -1.3958,0.54048 -0.544583,0 -1.03812,-0.206547 -1.39581,-0.54048 -0.359768,-0.335878 -0.582299,-0.800201 -0.582299,-1.31334 0,-0.380138 0.122335,-0.733709 0.332268,-1.02824 0.215358,-0.30215 0.522878,-0.54163 0.88472,-0.683094l0.0166693 -0.005 0.338555 -0.072126 0 -0.0280787 0.091252 -0.0136969c0.00118504,-0.000177165 0.00575591,-0.000791339 0.0205512,-0.00285827 0.00388583,-0.00053937 0.00232677,-0.000244094 0.0211693,-0.00268504l0.0580748 -0.00752756 0.0284646 0.0343228 0.39548 0 0.0291496 -0.0321102 0.0558937 0.00794882zm-0.017 0.234996l-0.0126575 -0.00269685c-0.0138268,0.00339764 -0.0280591,0.00520079 -0.0424803,0.00520079l-0.422169 0c-0.0179764,0 -0.0355276,-0.00271654 -0.052252,-0.00777165l-0.0247244 0.00526772 -0.414386 0.0882795c-0.319862,0.126772 -0.591161,0.338638 -0.78098,0.604961 -0.184654,0.259071 -0.29226,0.570217 -0.29226,0.904913 0,0.451783 0.196417,0.861047 0.513961,1.15751 0.319634,0.298406 0.761831,0.482976 1.25081,0.482976 0.488976,0 0.931169,-0.184571 1.2508,-0.482976 0.317543,-0.296461 0.513961,-0.705724 0.513961,-1.15751 0,-0.334701 -0.107606,-0.645846 -0.29226,-0.904917 -0.189819,-0.266323 -0.461118,-0.478189 -0.780984,-0.604961l-0.414378 -0.0882756z"/>
  <path class="fil0" d="M5.40383 3.25157c0.155602,0 0.296988,0.0593543 0.399768,0.155311 0.104862,0.0978976 0.169728,0.233453 0.169728,0.383449 0,0.149996 -0.0648661,0.285555 -0.169728,0.383453 -0.102783,0.0959567 -0.244161,0.155307 -0.399768,0.155307 -0.0394252,0 -0.0793268,-0.00423622 -0.11911,-0.0122717 -0.0404409,-0.00816535 -0.0787047,-0.0200551 -0.114319,-0.0352126l-0.0833268 -0.0354646 0.0216575 -0.0878701c0.0144882,-0.0588031 0.0256299,-0.119559 0.0332008,-0.182087 0.00733071,-0.0605433 0.0111024,-0.122555 0.0111024,-0.185854 0,-0.0633031 -0.00377165,-0.125315 -0.0111024,-0.185858 -0.00757087,-0.0625236 -0.0187126,-0.12328 -0.0332008,-0.182083l-0.0216575 -0.0878701 0.0833268 -0.0354646c0.0356142,-0.0151575 0.073878,-0.0270472 0.114319,-0.0352126 0.0397835,-0.00803543 0.079685,-0.0122717 0.11911,-0.0122717zm0.254768 0.311146c-0.0647244,-0.0604291 -0.154768,-0.0978071 -0.254768,-0.0978071 -0.0239567,0 -0.0463425,0.00183465 -0.0670512,0.00533858 0.00677953,0.0362598 0.0123976,0.0726811 0.0168228,0.109224 0.00843307,0.0696496 0.0127717,0.14002 0.0127717,0.210858 0,0.0708346 -0.00433858,0.141205 -0.0127717,0.210854 -0.0044252,0.0365472 -0.0100433,0.0729646 -0.0168228,0.109228 0.0207087,0.00350394 0.0430945,0.00533858 0.0670512,0.00533858 0.1,0 0.190043,-0.037378 0.254768,-0.0978031 0.0626378,-0.0584803 0.10139,-0.13898 0.10139,-0.227618 0,-0.0886378 -0.038752,-0.169134 -0.10139,-0.227614z"/>
  <path class="fil0" d="M1.42282 3.25157c0.0302835,0 0.0603268,0.00232283 0.0899173,0.00676772 0.0290157,0.0043622 0.0582205,0.0111693 0.0873386,0.0202008l0.0968858 0.0300551 -0.0252205 0.0978622c-0.0159921,0.0620669 -0.0282441,0.125638 -0.0364606,0.190496 -0.00776772,0.0612677 -0.0117756,0.125756 -0.0117756,0.193378 0,0.0676181 0.00400787,0.132106 0.0117756,0.193382 0.00821654,0.0648583 0.0204685,0.128429 0.0364606,0.190496l0.0252205 0.0978622 -0.0968858 0.0300551c-0.029122,0.0090315 -0.0583189,0.0158346 -0.0873346,0.0201969 -0.0295906,0.00445276 -0.0596417,0.00676772 -0.0899213,0.00676772 -0.155606,0 -0.296984,-0.0593504 -0.399768,-0.155307 -0.104862,-0.0978976 -0.169728,-0.233457 -0.169728,-0.383453 0,-0.149996 0.0648661,-0.285551 0.169728,-0.383449 0.10278,-0.0959567 0.244165,-0.155311 0.399768,-0.155311zm0.0182087 0.21374c-0.00600394,-0.000267717 -0.0120748,-0.000401575 -0.0182087,-0.000401575 -0.1,0 -0.190043,0.037378 -0.254768,0.0978071 -0.0626378,0.0584803 -0.10139,0.138976 -0.10139,0.227614 0,0.0886378 0.038752,0.169138 0.10139,0.227618 0.0647244,0.0604252 0.154768,0.0978031 0.254768,0.0978031 0.00613386,0 0.0122047,-0.000133858 0.0182087,-0.000401575 -0.0065748,-0.0347008 -0.0121142,-0.0697008 -0.0165827,-0.104969 -0.00941732,-0.0742992 -0.0142795,-0.147776 -0.0142795,-0.220051 0,-0.0722756 0.0048622,-0.145752 0.0142795,-0.220047 0.0044685,-0.0352717 0.0100079,-0.0702717 0.0165827,-0.104972z"/>
  <path class="fil0" d="M4.2238 4.61659c-0.0462087,0.112374 -0.113732,0.213213 -0.197669,0.297583 -0.0841457,0.0845827 -0.184677,0.152709 -0.296673,0.199437 -0.233126,0.0972677 -0.483811,0.090752 -0.700638,0.00159449 -0.21685,-0.0891654 -0.399661,-0.261 -0.49702,-0.494343l0.196669 -0.0816693c0.0747402,0.17913 0.214941,0.310984 0.381185,0.379343 0.166264,0.0683661 0.358783,0.0732362 0.538134,-0.00159449 0.0860787,-0.0359134 0.163173,-0.0880984 0.227508,-0.152768 0.0645472,-0.0648819 0.116417,-0.142283 0.151835,-0.228417l0.196669 0.0808346z"/>
  <path class="fil0" d="M2.91464 3.53721c-0.000712598,-0.0408858 -0.012437,-0.0802402 -0.0330157,-0.114484 -0.0203976,-0.0339409 -0.0496772,-0.0626693 -0.0856969,-0.0826299 -0.0552795,-0.0306339 -0.118118,-0.0358583 -0.175012,-0.0195394 -0.056622,0.0162402 -0.10702,0.0540197 -0.137752,0.109476 -0.00961417,0.0173504 -0.0169173,0.0360157 -0.0217638,0.0554724 -0.00498425,0.0199961 -0.00736614,0.0402323 -0.00701575,0.0601772l-0.212504 0.00333071c-0.000685039,-0.0390945 0.00367323,-0.0775354 0.0128504,-0.114343 0.00930709,-0.0373504 0.0235906,-0.0736693 0.0425984,-0.107969 0.0593268,-0.107055 0.156358,-0.179909 0.265256,-0.211146 0.108626,-0.0311614 0.229441,-0.0207205 0.336673,0.0387047 0.0691024,0.0382992 0.125433,0.0936772 0.16487,0.159299 0.0392598,0.0653268 0.0616299,0.141039 0.0630157,0.220319l-0.212504 0.00333071z"/>
  <path class="fil0" d="M4.32222 3.53721c-0.000716535,-0.0408858 -0.0124409,-0.0802402 -0.0330197,-0.114484 -0.0203976,-0.0339409 -0.0496732,-0.0626693 -0.0856929,-0.082626l-7.87402e-006 -3.93701e-006c-0.0552756,-0.0306339 -0.118118,-0.0358583 -0.175008,-0.0195433 -0.056622,0.0162402 -0.107008,0.0540236 -0.137744,0.109472l-3.93701e-006 7.87402e-006c-0.00961417,0.0173504 -0.0169173,0.0360157 -0.0217638,0.0554724 -0.00498425,0.02 -0.00736614,0.0402362 -0.00701969,0.0601772l-0.212504 0.00333071c-0.000681102,-0.0391024 0.00367717,-0.0775394 0.0128543,-0.114343 0.00930709,-0.0373504 0.0235906,-0.0736654 0.0425945,-0.107965l3.93701e-006 -7.87402e-006c0.0593268,-0.107051 0.156354,-0.179909 0.265252,-0.211146 0.10863,-0.0311535 0.229437,-0.0207165 0.336665,0.0387047l7.87402e-006 3.93701e-006c0.0691063,0.0382953 0.125433,0.0936732 0.16487,0.159299 0.0392598,0.0653268 0.0616299,0.141035 0.0630197,0.220319l-0.212504 0.00333071z"/>
  <path class="fil0" d="M3.18811 1.1988l0.422169 0c0.0506811,0 0.0966772,0.0206614 0.129953,0.053937 0.0332756,0.0332756 0.053937,0.0792795 0.053937,0.129957l0 0.628094c0,0.0506772 -0.0206614,0.0966811 -0.053937,0.129957 -0.0332756,0.0332756 -0.0792717,0.053937 -0.129953,0.053937l-0.422169 0c-0.0506811,0 -0.0966772,-0.0206614 -0.129953,-0.053937 -0.0332756,-0.0332756 -0.053937,-0.0792795 -0.053937,-0.129957l0 -0.628094c0,-0.0506732 0.0206575,-0.0966811 0.0539331,-0.129957 0.0332756,-0.0332756 0.0792795,-0.053937 0.129957,-0.053937zm0.39272 0.213339l-0.363272 0 0 0.569205 0.363272 0 0 -0.569205z"/>
  <path class="fil0" d="M4.54747 1.43707l-0.753299 0.160484 0 0.404319 0.753299 0.16048 0 -0.725283zm-0.882051 -0.0298268l0.966638 -0.205933 0.128752 -0.0274291 0 0.131594 0 0.988472 0 0.131594 -0.128752 -0.0274291 -0.966638 -0.205929 -0.0845866 -0.0180197 0 -0.0861457 0 -0.57661 0 -0.0861417 0.0845866 -0.0180236z"/>
  <path class="fil0" d="M2.1445 1.20131l0.966638 0.205933 0.0845866 0.0180236 0 0.0861417 0 0.57661 0 0.0861457 -0.0845866 0.0180197 -0.966638 0.205929 -0.128752 0.0274291 0 -0.131594 0 -0.988472 0 -0.131594 0.128752 0.0274291zm0.837886 0.396244l-0.753299 -0.160484 0 0.725283 0.753299 -0.16048 0 -0.404319z"/>
  <g id="_321133672">
   <rect id="_321134584" class="fil1" width="6.82666" height="6.82666"/>
   <rect id="_321133840" class="fil1" x="0.853331" y="0.853331" width="5.12" height="5.12"/>
  </g>
 </g>
</svg>
