<svg xmlns="http://www.w3.org/2000/svg" width="655.3594" height="655.3594" fill-rule="evenodd" clip-rule="evenodd" image-rendering="optimizeQuality" shape-rendering="geometricPrecision" text-rendering="geometricPrecision" viewBox="0 0 6.8267 6.8267">
  <g id="Layer_x0020_1">
    <g id="_420781552" fill="#212121">
      <path id="_420781384" d="M2.4779 1.7067a.1888.1888 0 1 0 0 .3776.1888.1888 0 0 0 0-.3776z"/>
      <path id="_420781192" fill-rule="nonzero" d="M5.1747 2.5043c.0708-.0934.1376-.124.2397-.0466.2867.2174.4748.5886.5365 1.0065.059.4.0029.8455-.1933 1.2394-.2496.501-.6805.8197-1.1911 1.007-.618.2266-1.3533.259-2.0189.1895-.4515-.0473-.8619-.236-1.1545-.5285-.2795-.2795-.4519-.6527-.4519-1.088 0-.274.0687-.5328.1899-.7598a1.624 1.624 0 0 1 .5269-.583l-.0002-.0002a.2207.2207 0 0 0 .032-.025.2072.2072 0 0 0-.0298-.0166c-.2274-.1073-.4347-.238-.5805-.381-.1403-.1374-.2262-.2883-.2262-.4456 0-.1866.075-.2874.2024-.335.105-.0391.24-.0313.3941-.005a.1822.1822 0 0 0 .122-.0244.2522.2522 0 0 0 .0997-.1108v-.0004a1.2284 1.2284 0 0 1 .4524-.5131 1.217 1.217 0 0 1 .6545-.19c.3377 0 .6433.1368.8645.358.2212.2212.358.5268.358.8645a1.2216 1.2216 0 0 1-.3346.8395c-.0183.0195-.0299.0364-.0343.0498a.1208.1208 0 0 0 .032.0112c.105.0246.216.0434.3332.052.1175.0088.2417.0076.3728-.0077.4973-.0584.6598-.3247.751-.4742.0197-.0322.0366-.06.0537-.0825zm.1513.1556c-.0072.0113-.015.024-.0233.0377-.1107.1814-.3078.5046-.9085.575a2.1632 2.1632 0 0 1-.412.0087 2.3643 2.3643 0 0 1-.3665-.057c-.0574-.0136-.1023-.037-.1348-.0677a.1973.1973 0 0 1-.0561-.092.207.207 0 0 1-.0014-.1036c.0119-.0503.0416-.102.088-.1511l.0004-.0005a1.007 1.007 0 0 0 .205-.3199 1.0065 1.0065 0 0 0 .0708-.3733c0-.2788-.113-.531-.2955-.7137a1.006 1.006 0 0 0-.7137-.2954c-.1988 0-.3842.0574-.5403.1565a1.0153 1.0153 0 0 0-.3741.424h-.0002a.4676.4676 0 0 1-.1854.2046.3925.3925 0 0 1-.2636.0501c-.1216-.0207-.2227-.0289-.285-.0057-.0397.0149-.0631.055-.0631.1358 0 .095.0615.1956.162.294.1277.1251.3145.2421.5221.3401.0585.0276.1008.0616.127.1004a.1864.1864 0 0 1 .0325.0922.188.188 0 0 1-.0185.0948c-.0209.0441-.0593.0859-.1148.1234h-.0004a1.4106 1.4106 0 0 0-.458.5065 1.3972 1.3972 0 0 0-.164.6598c0 .3749.1485.6964.3893.9371.2587.2587.6232.4256 1.0254.4677.6376.0666 1.3391.0366 1.9238-.1778.4623-.1695.8512-.4554 1.0737-.902.176-.3535.2264-.7538.1732-1.1136-.0507-.3439-.1954-.6484-.414-.835z"/>
    </g>
    <g id="_420781096">
      <path id="_420781624" d="M0 0h6.8267v6.8267H0z" class="fil2"/>
      <path id="_420781600" d="M.8533.8533h5.12v5.12h-5.12z" class="fil2"/>
    </g>
  </g>
</svg>