<?xml version="1.0" encoding="UTF-8"?>
<!DOCTYPE svg PUBLIC "-//W3C//DTD SVG 1.1//EN" "http://www.w3.org/Graphics/SVG/1.1/DTD/svg11.dtd">
<!-- Creator: CorelDRAW -->
<svg xmlns="http://www.w3.org/2000/svg" xml:space="preserve" width="6.82666in" height="6.82666in" style="shape-rendering:geometricPrecision; text-rendering:geometricPrecision; image-rendering:optimizeQuality; fill-rule:evenodd; clip-rule:evenodd"
viewBox="0 0 6.82666 6.82666"
 xmlns:xlink="http://www.w3.org/1999/xlink">
 <defs>
  <style type="text/css">
   <![CDATA[
    .fil2 {fill:none}
    .fil0 {fill:#ffffff}
    .fil1 {fill:#ffffff;fill-rule:nonzero}
   ]]>
  </style>
 </defs>
 <g id="Layer_x0020_1">
  <metadata id="CorelCorpID_0Corel-Layer"/>
  <g id="_420781552">
   <path id="_420781384" class="fil0" d="M2.47789 1.70666c-0.104299,0 -0.188787,0.084563 -0.188787,0.18885 -7.87402e-006,0.104287 0.0844921,0.188787 0.188787,0.188787 0.104283,0 0.188776,-0.0845 0.188776,-0.188787 0,-0.104287 -0.0844882,-0.18885 -0.188776,-0.18885z"/>
   <path id="_420781192" class="fil1" d="M5.1747 2.50429c0.0708071,-0.0934055 0.137594,-0.123992 0.239677,-0.0466102 0.286756,0.217378 0.474803,0.588661 0.536492,1.00651 0.0590591,0.400071 0.00290945,0.845472 -0.193228,1.23939 -0.249594,0.501039 -0.680579,0.819768 -1.19119,1.00701 -0.618043,0.226634 -1.35326,0.259016 -2.01882,0.189469 -0.451496,-0.0473031 -0.861929,-0.23587 -1.15454,-0.52848 -0.279445,-0.279445 -0.451886,-0.65265 -0.451886,-1.08794 0,-0.274075 0.0687047,-0.532799 0.189878,-0.75987 0.12539,-0.234972 0.307043,-0.435315 0.52689,-0.582937l-0.000129921 -0.000192913c0.0141024,-0.00953543 0.0247323,-0.0179331 0.0318898,-0.025122 -0.00708661,-0.00497244 -0.0169724,-0.0104843 -0.0297283,-0.0165039 -0.227406,-0.107311 -0.434673,-0.238051 -0.580531,-0.380972 -0.14024,-0.137417 -0.226142,-0.288386 -0.226142,-0.445681 0,-0.186579 0.0749449,-0.287331 0.20239,-0.334894 0.105016,-0.039189 0.240063,-0.0313346 0.394102,-0.00515354 0.0426102,0.00708661 0.0849213,-0.00277953 0.121949,-0.024311 0.0423622,-0.0246378 0.077685,-0.0638425 0.0997165,-0.110768l0 -0.000417323c0.0993425,-0.211102 0.257138,-0.389157 0.452417,-0.513165 0.189386,-0.120268 0.413917,-0.189929 0.654543,-0.189929 0.33765,0 0.643272,0.136787 0.864476,0.357992 0.221201,0.221197 0.357988,0.526811 0.357988,0.864469 0,0.158787 -0.0307441,0.311248 -0.0866811,0.451677 -0.0578622,0.145256 -0.142539,0.276606 -0.247874,0.387827l1.1811e-005 1.1811e-005c-0.0183858,0.0194961 -0.0299528,0.0364134 -0.0343425,0.0498268 0.00675197,0.0039685 0.0173386,0.00774409 0.0320433,0.0111969 0.104862,0.0246181 0.215898,0.0433701 0.333165,0.0520709 0.117461,0.00871654 0.241646,0.00749213 0.372803,-0.00779921 0.497264,-0.0583504 0.659783,-0.324717 0.75098,-0.474185 0.0196535,-0.0322126 0.0365906,-0.0599685 0.0536811,-0.0825157zm0.151331 0.155626c-0.0072126,0.0112835 -0.0149764,0.0240118 -0.0233425,0.0377244 -0.11065,0.18135 -0.307831,0.504539 -0.908484,0.57502 -0.144996,0.0169016 -0.28222,0.0182598 -0.411969,0.00863386 -0.129937,-0.00964173 -0.251945,-0.0301772 -0.366496,-0.0570709 -0.0574252,-0.0134961 -0.102299,-0.0368543 -0.134874,-0.0675748 -0.0278937,-0.0263031 -0.0464843,-0.0573307 -0.0560748,-0.0919961 -0.00927953,-0.033563 -0.00962598,-0.0684134 -0.00134646,-0.103642 0.011811,-0.0502795 0.0415787,-0.102008 0.0879252,-0.15115l0.000417323 -0.000417323c0.0873583,-0.0921457 0.157378,-0.200512 0.204941,-0.319917 0.0457205,-0.114776 0.0708465,-0.240728 0.0708465,-0.373346 0,-0.278772 -0.112906,-0.531059 -0.295484,-0.713634 -0.182583,-0.182583 -0.434878,-0.295488 -0.713642,-0.295488 -0.198882,0 -0.384236,0.0574331 -0.540378,0.156591 -0.161598,0.102622 -0.292075,0.24974 -0.374079,0.424l-0.000161417 -7.48031e-005c-0.0405197,0.086122 -0.106177,0.15852 -0.18539,0.204591 -0.0780472,0.0453898 -0.169299,0.0658346 -0.263618,0.0501457 -0.121583,-0.0206654 -0.222705,-0.0289055 -0.284937,-0.0056811 -0.0398031,0.0148543 -0.0632165,0.0550591 -0.0632165,0.135728 0,0.0949764 0.0615276,0.195594 0.161969,0.294012 0.12772,0.125146 0.314551,0.24215 0.522201,0.340138 0.0584685,0.0275945 0.100787,0.0616417 0.127,0.100406 0.0193346,0.0285945 0.0301417,0.0594488 0.0325039,0.0921496 0.00230709,0.0320236 -0.00391339,0.0637717 -0.0185709,0.0948346 -0.0208268,0.044126 -0.0592638,0.0858819 -0.114764,0.123409l-0.000417323 0c-0.191197,0.128327 -0.349106,0.30239 -0.458004,0.506461 -0.104685,0.196173 -0.164043,0.420791 -0.164043,0.65987 0,0.374843 0.148591,0.696319 0.389382,0.93711 0.258642,0.258646 0.623154,0.425504 1.02537,0.467646 0.637567,0.066622 1.33912,0.0366102 1.92382,-0.177799 0.462331,-0.169535 0.851193,-0.455374 1.07369,-0.902008 0.176024,-0.353524 0.226346,-0.753744 0.173228,-1.11356 -0.0507756,-0.343909 -0.195421,-0.648394 -0.414004,-0.83511z"/>
  </g>
  <g id="_420781096">
   <rect id="_420781624" class="fil2" width="6.82666" height="6.82666"/>
   <rect id="_420781600" class="fil2" x="0.853331" y="0.853331" width="5.12" height="5.12"/>
  </g>
 </g>
</svg>
