<?xml version="1.0" encoding="UTF-8"?>
<!DOCTYPE svg PUBLIC "-//W3C//DTD SVG 1.1//EN" "http://www.w3.org/Graphics/SVG/1.1/DTD/svg11.dtd">
<!-- Creator: CorelDRAW -->
<svg xmlns="http://www.w3.org/2000/svg" xml:space="preserve" width="6.82666in" height="6.82666in" style="shape-rendering:geometricPrecision; text-rendering:geometricPrecision; image-rendering:optimizeQuality; fill-rule:evenodd; clip-rule:evenodd"
viewBox="0 0 6.82666 6.82666"
 xmlns:xlink="http://www.w3.org/1999/xlink">
 <defs>
  <style type="text/css">
   <![CDATA[
    .fil1 {fill:none}
    .fil0 {fill:#ffffff;fill-rule:nonzero}
   ]]>
  </style>
 </defs>
 <g id="Layer_x0020_1">
  <metadata id="CorelCorpID_0Corel-Layer"/>
  <g id="_321119464">
   <path id="_321119104" class="fil0" d="M0.959996 1.1386l4.90667 0 0.106669 0 0 0.106669 0 2.55318c0,0.535941 -0.149173,1.02317 -0.439465,1.36876 -0.271031,0.322654 -0.661547,0.520858 -1.16488,0.520858l-1.91131 0c-0.503335,0 -0.893854,-0.198205 -1.16488,-0.520858 -0.290287,-0.345575 -0.439465,-0.832807 -0.439465,-1.36876l0 -2.55318 0 -0.106669 0.106669 0zm4.8 0.213339l-4.69333 0 0 2.44651c0,0.487059 0.132201,0.925835 0.389457,1.23209 0.23113,0.275157 0.566677,0.444189 1.00155,0.444189l1.91131 0c0.434874,0 0.770413,-0.169031 1.00155,-0.444189 0.257256,-0.30626 0.389457,-0.745031 0.389457,-1.23209l0 -2.44651z"/>
   <path id="_321119392" class="fil0" d="M5.97333 3.46496l0 0.333488c0,0.535941 -0.149173,1.02317 -0.439465,1.36876 -0.271031,0.322654 -0.661547,0.520858 -1.16488,0.520858l-0.330854 0 -0.106669 0 0 -0.106669 0 -0.333484c0,-0.535953 0.149177,-1.02318 0.439465,-1.36876 0.271028,-0.322654 0.661547,-0.520858 1.16488,-0.520858l0.330854 0 0.106669 0 0 0.106669zm-0.213339 0.333488l0 -0.226819 -0.224185 0c-0.434874,0 -0.770421,0.169031 -1.00155,0.444189 -0.257256,0.306256 -0.389457,0.745028 -0.389457,1.23209l0 0.226815 0.224185 0c0.434874,0 0.770413,-0.169031 1.00155,-0.444189 0.257256,-0.30626 0.389457,-0.745031 0.389457,-1.23209z"/>
   <path id="_321119536" class="fil0" d="M1.1264 1.7873l0.865331 0c0.0804803,0 0.15174,0.0398661 0.201689,0.104098 0.0440433,0.056622 0.0713858,0.133358 0.0713858,0.21652l0 0.0644803c0,0.0831575 -0.0273425,0.159894 -0.0713858,0.216524 -0.0499488,0.0642323 -0.121209,0.104098 -0.201689,0.104098l-1.03174 0 -0.106669 0 0 -0.106669 0 -0.278433c0,-0.0831575 0.0273425,-0.15989 0.0713858,-0.21652 0.0499567,-0.0642244 0.121205,-0.104098 0.201689,-0.104098zm0.865331 0.213339l-0.865331 0c-0.0110394,0 -0.0229961,0.00827559 -0.0333583,0.0215945 -0.0162717,0.0209213 -0.026378,0.0511732 -0.026378,0.085685l0 0.171764 0.925067 0c0.0110433,0 0.023,-0.00827165 0.0333583,-0.0215945 0.0162717,-0.0209213 0.026378,-0.0511732 0.026378,-0.085689l0 -0.0644803c0,-0.0345118 -0.0101063,-0.0647638 -0.026378,-0.085685 -0.0103583,-0.0133228 -0.022315,-0.0215945 -0.0333583,-0.0215945z"/>
   <path id="_321119152" class="fil0" d="M5.70026 2.00064l-0.865331 0c-0.0110433,0 -0.023,0.00827165 -0.0333583,0.0215945 -0.0162717,0.0209213 -0.026378,0.0511732 -0.026378,0.085685l0 0.0644803c0,0.0345157 0.0101063,0.0647677 0.026378,0.085689 0.0103583,0.0133228 0.022315,0.0215945 0.0333583,0.0215945l0.925067 0 0 -0.171764c0,-0.0345118 -0.0101063,-0.0647638 -0.026378,-0.085685 -0.0103622,-0.0133189 -0.0223189,-0.0215945 -0.0333583,-0.0215945zm-0.865331 -0.213339l0.865331 0c0.0804843,0 0.151732,0.039874 0.201689,0.104098 0.0440433,0.0566299 0.0713858,0.133362 0.0713858,0.21652l0 0.278433 0 0.106669 -0.106669 0 -1.03174 0c-0.0804803,0 -0.15174,-0.0398661 -0.201689,-0.104098 -0.0440433,-0.0566299 -0.0713858,-0.133366 -0.0713858,-0.216524l0 -0.0644803c0,-0.0831614 0.0273425,-0.159898 0.0713858,-0.21652 0.0499488,-0.0642323 0.121209,-0.104098 0.201689,-0.104098z"/>
   <path id="_321119728" class="fil0" d="M1.06667 3.57163l0 0.226819c0,0.487055 0.132201,0.925827 0.389457,1.23209 0.231138,0.275157 0.566677,0.444189 1.00155,0.444189l0.224185 0 0 -0.226815c0,-0.487063 -0.132201,-0.925835 -0.389457,-1.23209 -0.23113,-0.275157 -0.566677,-0.444189 -1.00155,-0.444189l-0.224185 0zm-0.213339 0.226819l0 -0.333488 0 -0.106669 0.106669 0 0.330854 0c0.503335,0 0.893854,0.198205 1.16488,0.520858 0.290287,0.345579 0.439465,0.832807 0.439465,1.36876l0 0.333484 0 0.106669 -0.106669 0 -0.330854 0c-0.503335,0 -0.89385,-0.198205 -1.16488,-0.520858 -0.290291,-0.345587 -0.439465,-0.832815 -0.439465,-1.36876z"/>
  </g>
  <g id="_321118936">
   <rect id="_321118600" class="fil1" width="6.82666" height="6.82666"/>
   <rect id="_321118960" class="fil1" x="0.853331" y="0.853331" width="5.12" height="5.12"/>
  </g>
 </g>
</svg>
