<?xml version="1.0" encoding="UTF-8"?>
<!DOCTYPE svg PUBLIC "-//W3C//DTD SVG 1.1//EN" "http://www.w3.org/Graphics/SVG/1.1/DTD/svg11.dtd">
<!-- Creator: CorelDRAW -->
<svg xmlns="http://www.w3.org/2000/svg" xml:space="preserve" width="6.82666in" height="6.82666in" style="shape-rendering:geometricPrecision; text-rendering:geometricPrecision; image-rendering:optimizeQuality; fill-rule:evenodd; clip-rule:evenodd"
viewBox="0 0 6.82666 6.82666"
 xmlns:xlink="http://www.w3.org/1999/xlink">
 <defs>
  <style type="text/css">
   <![CDATA[
    .fil1 {fill:none}
    .fil0 {fill:#ffffff;fill-rule:nonzero}
   ]]>
  </style>
 </defs>
 <g id="Layer_x0020_1">
  <metadata id="CorelCorpID_0Corel-Layer"/>
  <g id="_420780304">
   <path id="_420780568" class="fil0" d="M0.959996 1.50263l4.90667 0 0.106669 3.93701e-006 0 0.106665 0 1.96802 0 0.0907598 -0.0900039 0.0142402c-0.574972,0.0909567 -0.944189,0.232236 -1.19981,0.472531 -0.255303,0.239996 -0.405984,0.587815 -0.542469,1.09043l-0.0213858 0.078752 -0.0815315 0 -1.24961 0 -0.0830945 0 -0.0202402 -0.081252c-0.112118,-0.450094 -0.242039,-0.772819 -0.492469,-1.01279 -0.253004,-0.242437 -0.636343,-0.409634 -1.25606,-0.548921l-0.0833346 -0.0187323 0 -0.0850197 0 -1.96802 0 -0.106665 0.106669 -3.93701e-006zm4.8 0.213339l-4.69333 0 0 1.77685c0.611732,0.144961 1.00276,0.324358 1.27356,0.58385 0.269406,0.258154 0.41328,0.587504 0.530827,1.03403l1.08603 0c0.141402,-0.497925 0.305323,-0.852071 0.580598,-1.11084 0.275,-0.258516 0.653331,-0.413713 1.22231,-0.512594l0 -1.77129z"/>
   <path id="_420780832" class="fil0" d="M1.1264 2.03596l0.865331 0c0.0804803,0 0.15174,0.0398661 0.201689,0.104098 0.0440433,0.056622 0.0713858,0.133358 0.0713858,0.21652l0 0.0644803c0,0.0831575 -0.0273425,0.159894 -0.0713858,0.216524 -0.0499488,0.0642323 -0.121209,0.104098 -0.201689,0.104098l-1.03174 0 -0.106669 0 0 -0.106669 0 -0.278433c0,-0.0831575 0.0273425,-0.15989 0.0713858,-0.21652 0.0499567,-0.0642244 0.121205,-0.104098 0.201689,-0.104098zm0.865331 0.213339l-0.865331 0c-0.0110394,0 -0.0229961,0.00827559 -0.0333583,0.0215945 -0.0162717,0.0209213 -0.026378,0.0511732 -0.026378,0.085685l0 0.171764 0.925067 0c0.0110433,0 0.023,-0.00827165 0.0333583,-0.0215945 0.0162717,-0.0209213 0.026378,-0.0511732 0.026378,-0.085689l0 -0.0644803c0,-0.0345118 -0.0101063,-0.0647638 -0.026378,-0.085685 -0.0103583,-0.0133228 -0.022315,-0.0215945 -0.0333583,-0.0215945z"/>
   <path id="_420780640" class="fil0" d="M5.70026 2.2493l-0.865331 0c-0.0110433,0 -0.023,0.00827165 -0.0333583,0.0215945 -0.0162717,0.0209213 -0.026378,0.0511732 -0.026378,0.085685l0 0.0644803c0,0.0345157 0.0101063,0.0647677 0.026378,0.085689 0.0103583,0.0133228 0.022315,0.0215945 0.0333583,0.0215945l0.925067 0 0 -0.171764c0,-0.0345118 -0.0101063,-0.0647638 -0.026378,-0.085685 -0.0103622,-0.0133189 -0.0223189,-0.0215945 -0.0333583,-0.0215945zm-0.865331 -0.213339l0.865331 0c0.0804843,0 0.151732,0.039874 0.201689,0.104098 0.0440433,0.0566299 0.0713858,0.133362 0.0713858,0.21652l0 0.278433 0 0.106669 -0.106669 0 -1.03174 0c-0.0804803,0 -0.15174,-0.0398661 -0.201689,-0.104098 -0.0440433,-0.0566299 -0.0713858,-0.133366 -0.0713858,-0.216524l0 -0.0644803c0,-0.0831614 0.0273425,-0.159898 0.0713858,-0.21652 0.0499488,-0.0642323 0.121209,-0.104098 0.201689,-0.104098z"/>
   <polygon id="_420780712" class="fil0" points="0.959996,3.2093 5.86667,3.2093 5.86667,3.42264 0.959996,3.42264 "/>
  </g>
  <g id="_420780064">
   <rect id="_420780184" class="fil1" width="6.82666" height="6.82666"/>
   <rect id="_420779512" class="fil1" x="0.853331" y="0.853331" width="5.12" height="5.12"/>
  </g>
 </g>
</svg>
