<?xml version="1.0" encoding="UTF-8"?>
<!DOCTYPE svg PUBLIC "-//W3C//DTD SVG 1.1//EN" "http://www.w3.org/Graphics/SVG/1.1/DTD/svg11.dtd">
<!-- Creator: CorelDRAW -->
<svg xmlns="http://www.w3.org/2000/svg" xml:space="preserve" width="6.82666in" height="6.82666in" style="shape-rendering:geometricPrecision; text-rendering:geometricPrecision; image-rendering:optimizeQuality; fill-rule:evenodd; clip-rule:evenodd"
viewBox="0 0 6.82666 6.82666"
 xmlns:xlink="http://www.w3.org/1999/xlink">
 <defs>
  <style type="text/css">
   <![CDATA[
    .fil1 {fill:none}
    .fil0 {fill:#ffffff;fill-rule:nonzero}
   ]]>
  </style>
 </defs>
 <g id="Layer_x0020_1">
  <metadata id="CorelCorpID_0Corel-Layer"/>
  <g id="_420774232">
   <path id="_420774856" class="fil0" d="M2.0225 2.98276l1.0909 -0.911925c0.0843937,-0.0705433 0.188898,-0.0893425 0.295646,-0.0676654 0.101358,0.0205866 0.204492,0.0789134 0.290157,0.163445l1.85823 1.83352c0.0140157,0.0138346 0.0264803,0.0273189 0.0374449,0.040437 0.142059,0.169941 0.146516,0.374614 0.100024,0.551787 -0.0441732,0.168335 -0.137898,0.314776 -0.197429,0.375106 -0.00759055,0.00769685 -0.0144055,0.0140591 -0.0203583,0.0190394l-1.00407 0.839346c-0.00640157,0.00535433 -0.0138937,0.0109724 -0.0223819,0.0167874 -0.0700787,0.0479882 -0.230819,0.114374 -0.403874,0.127969 -0.182685,0.0143504 -0.383409,-0.0263543 -0.525583,-0.196433 -0.0113465,-0.0135748 -0.0224567,-0.028252 -0.0332835,-0.0440591l-1.475 -2.15388c-0.0679921,-0.0992795 -0.107098,-0.211126 -0.10939,-0.314535 -0.00240551,-0.108909 0.0346142,-0.208417 0.118976,-0.278941zm1.22757 -0.748594l-1.0909 0.911925c-0.0307402,0.0256969 -0.0441496,0.0657047 -0.0431417,0.111445 0.00136614,0.0618031 0.0273701,0.132484 0.0727205,0.198701l1.475 2.15388c0.00646063,0.00942913 0.0134016,0.0185669 0.0207795,0.0273898 0.0883583,0.105701 0.221846,0.130315 0.345583,0.120598 0.133354,-0.0104724 0.25126,-0.0575472 0.300543,-0.0912992 0.00216929,-0.00148819 0.00408661,-0.0029252 0.0057126,-0.00428346l1.00407 -0.839346c0.0020748,-0.00173228 0.00387795,-0.00337402 0.00535827,-0.00487402 0.0420787,-0.0426457 0.109425,-0.150315 0.143264,-0.279272 0.0315197,-0.120118 0.0309449,-0.255961 -0.0575197,-0.361787 -0.00775197,-0.00927559 -0.0155236,-0.0177795 -0.0232795,-0.025437l-1.85823 -1.83352c-0.0571142,-0.0563583 -0.122067,-0.0944764 -0.182661,-0.106783 -0.0448425,-0.0091063 -0.0865906,-0.00301181 -0.117307,0.0226654z"/>
   <path id="_420773992" class="fil0" d="M1.26247 2.74778l1.75443 -1.46659c0.0428976,-0.0358622 0.0965669,-0.0509173 0.148457,-0.0462835 0.052248,0.00467323 0.102591,0.0290039 0.138409,0.0718465l0.274213 0.328028c0.0358661,0.0429016 0.0509134,0.0965709 0.0462795,0.148457 -0.00466535,0.0522441 -0.0289921,0.102587 -0.0718425,0.138409l-1.75443 1.46659c-0.0428976,0.0358583 -0.096563,0.0509173 -0.148453,0.0462835 -0.052248,-0.00466535 -0.102591,-0.029 -0.138409,-0.0718425l-0.274213 -0.328031c-0.0358622,-0.0428976 -0.0509173,-0.096563 -0.0462835,-0.148453 0.00466535,-0.052248 0.0289961,-0.102591 0.0718425,-0.138409zm1.88391 -1.29725l-1.74013 1.45464 0.262256 0.313724 1.74013 -1.45463 -0.262256 -0.313728z"/>
   <path id="_420774304" class="fil0" d="M1.24061 0.941248c0.0796496,-0.0665866 0.178866,-0.0945748 0.27487,-0.086 0.0963583,0.00861024 0.189236,0.0537441 0.25578,0.133343 0.0365354,0.0437047 0.0587283,0.0866063 0.0716339,0.126752 0.280736,-0.158039 0.624846,0.0907598 0.875815,0.272264 0.0445433,0.0322165 0.0859213,0.0621417 0.115894,0.0821457l0.118177 0.0788819 -0.109008 0.0911181 -1.19755 1.00108 -0.108587 0.0907756 -0.057248 -0.129524c-0.0158228,-0.0358031 -0.0374055,-0.0800669 -0.0606142,-0.127677 -0.135874,-0.27872 -0.321811,-0.660272 -0.114642,-0.90965 -0.0371693,-0.019815 -0.0753898,-0.0492323 -0.111866,-0.0928661 -0.0665827,-0.0796535 -0.0945709,-0.17887 -0.0859921,-0.274866 0.0086063,-0.0963583 0.0537402,-0.189236 0.133339,-0.255776zm0.256539 0.125669c-0.0417598,-0.00372835 -0.0850236,0.0085315 -0.11987,0.0376614 -0.0348937,0.0291693 -0.0546417,0.069374 -0.0583386,0.110776 -0.00373228,0.0417559 0.00852756,0.0850236 0.0376535,0.119866 0.0491378,0.0587835 0.111122,0.0575472 0.140531,0.0569606 0.0454055,-0.000909449 0.0751811,-0.00150787 0.11028,0.040815 0.0721417,0.0869646 0.0309685,0.121421 -0.0885591,0.221142l0.000173228 0.000204724 -0.020937 0.0174803c-0.165106,0.13802 -0.00276772,0.471039 0.113358,0.709252l0.00389764 0.00799213 0.985492 -0.823807 -0.00712205 -0.00514961c-0.21485,-0.155382 -0.515772,-0.373012 -0.679587,-0.236071l-0.0209173 0.0175079c-0.119201,0.0998465 -0.160303,0.134272 -0.233445,0.0473976 -0.0354764,-0.0421417 -0.0296063,-0.0710866 -0.0207244,-0.115307 0.00579134,-0.0288425 0.018,-0.0896339 -0.0311063,-0.148378 -0.0291732,-0.0348976 -0.069378,-0.0546417 -0.11078,-0.0583425z"/>
   <polygon id="_420774472" class="fil0" points="3.36709,3.14394 4.00305,2.61231 4.13972,2.77565 3.50376,3.30727 "/>
   <polygon id="_420774688" class="fil0" points="3.99708,3.25137 4.31506,2.98556 4.45173,3.14889 4.13375,3.4147 "/>
   <polygon id="_420774352" class="fil0" points="3.99111,3.89043 4.62707,3.3588 4.76374,3.52213 4.12778,4.05376 "/>
   <polygon id="_420774664" class="fil0" points="4.67782,3.95044 5.05252,3.63722 5.18919,3.80055 4.81449,4.11378 "/>
  </g>
  <g id="_420773968">
   <rect id="_420774184" class="fil1" width="6.82666" height="6.82666"/>
   <rect id="_420774568" class="fil1" x="0.853331" y="0.853331" width="5.12" height="5.12"/>
  </g>
 </g>
</svg>
