<svg xmlns="http://www.w3.org/2000/svg" width="655.36" height="655.36" fill-rule="evenodd" clip-rule="evenodd" image-rendering="optimizeQuality" shape-rendering="geometricPrecision" text-rendering="geometricPrecision" viewBox="0 0 6.83 6.83">
  <g id="Layer_x0020_1">
    <path d="M2.28 2.54H3.87l.37-1.6.1.02-.1-.02a.1.1 0 0 1 .1-.09H5a.1.1 0 0 1 .1.14l-.54 2.32-.1-.02.1.02a.1.1 0 0 1-.1.09H2.99l-.17.41-.1-.04.1.04a.1.1 0 0 1-.1.07h-.64a.1.1 0 0 1-.1-.13l.2-1.12a.1.1 0 0 1 .1-.09zm.64.21h-.55l-.16.91h.44l.17-.4a.1.1 0 0 1 .1-.08h1.44l.5-2.11h-.43l-.37 1.6a.1.1 0 0 1-.1.08H2.92z" class="fil0"/>
    <path d="M2.5 2.65v-.73h.2v.73z" class="fil0"/>
    <path d="M2.04 1.74a.1.1 0 0 0 0 .21h2.11a.1.1 0 0 0 0-.21H2.04zM2.5 3.8a.1.1 0 0 0-.2-.06l-.56 2.1a.1.1 0 0 0 .2.05l.56-2.1zM4.07 3.26a.1.1 0 0 0-.2.06l.7 2.57a.1.1 0 0 0 .2-.05l-.7-2.58z" class="fil0"/>
    <path d="M2.19 4.6H4.3v.22H2.19z" class="fil0"/>
    <g id="_321117616">
      <path id="_321118024" d="M0 0h6.83v6.83H0z" class="fil1"/>
      <path id="_321117928" d="M.85.85h5.12v5.12H.85z" class="fil1"/>
    </g>
  </g>
</svg>