<?xml version="1.0" encoding="UTF-8"?>
<!DOCTYPE svg PUBLIC "-//W3C//DTD SVG 1.1//EN" "http://www.w3.org/Graphics/SVG/1.1/DTD/svg11.dtd">
<!-- Creator: CorelDRAW -->
<svg xmlns="http://www.w3.org/2000/svg" xml:space="preserve" width="6.82666in" height="6.82666in" style="shape-rendering:geometricPrecision; text-rendering:geometricPrecision; image-rendering:optimizeQuality; fill-rule:evenodd; clip-rule:evenodd"
viewBox="0 0 6.82666 6.82666"
 xmlns:xlink="http://www.w3.org/1999/xlink">
 <defs>
  <style type="text/css">
   <![CDATA[
    .fil2 {fill:none}
    .fil1 {fill:#ffffff}
    .fil0 {fill:#ffffff;fill-rule:nonzero}
   ]]>
  </style>
 </defs>
 <g id="Layer_x0020_1">
  <metadata id="CorelCorpID_0Corel-Layer"/>
  <g id="_420787984">
   <path id="_420788560" class="fil0" d="M5.20626 3.77832c0,-0.132087 -0.0534409,-0.251654 -0.139819,-0.338102 -0.0861024,-0.0861654 -0.205354,-0.139504 -0.337339,-0.139504 -0.0532362,0 -0.103657,0.00853543 -0.150138,0.0241181 -0.0495433,0.0166102 -0.095374,0.0410433 -0.136098,0.0715787l-0.0735866 0.0551732 -0.0651654 -0.0647559c-0.031811,-0.0316102 -0.0662795,-0.0619921 -0.103098,-0.0910276 -0.0369961,-0.0291732 -0.0754764,-0.0561575 -0.115173,-0.080874l-0.114701 -0.0714134 0.0963701 -0.0948386c0.0885945,-0.087189 0.160228,-0.192083 0.209343,-0.309165 0.0470354,-0.112118 0.0730315,-0.235299 0.0730315,-0.36461 0,-0.0450354 -0.00311024,-0.0880866 -0.00893701,-0.12926 -0.00601181,-0.0424921 -0.0147756,-0.0838583 -0.0258858,-0.12411l-0.0314134 -0.113799 0.116413 -0.0195354c0.110516,-0.0185433 0.207945,-0.0762008 0.277433,-0.158291 0.068126,-0.0804882 0.10924,-0.184752 0.10924,-0.29887 0,-0.128256 -0.0519646,-0.244354 -0.13598,-0.328374 -0.0840118,-0.0840197 -0.200102,-0.135984 -0.32835,-0.135984 -0.107098,0 -0.205563,0.0362205 -0.283854,0.0970551 -0.0802165,0.0623307 -0.139413,0.150406 -0.165228,0.251787l-0.0292087 0.114693 -0.110791 -0.0409449c-0.0536339,-0.0198189 -0.108252,-0.0351732 -0.163291,-0.045185 -0.0522008,-0.0095 -0.107283,-0.0145945 -0.165106,-0.0145945l0 -0.000417323c-0.0524331,-1.1811e-005 -0.104811,0.00474803 -0.156783,0.0137087 -0.0536575,0.00925591 -0.10528,0.0228701 -0.154669,0.0402205l-0.108031 0.0379528 -0.0298858 -0.11087c-0.0269882,-0.100126 -0.0863228,-0.186913 -0.16613,-0.248165 -0.0778189,-0.0597205 -0.175343,-0.0952402 -0.281571,-0.0952402 -0.128295,0 -0.244402,0.0519646 -0.328425,0.135972 -0.0840315,0.0840236 -0.136,0.200134 -0.136,0.328386 0,0.111488 0.0390118,0.213547 0.104075,0.29326 0.0664291,0.0813898 0.159949,0.139831 0.266839,0.16165l0.112413 0.0229488 -0.0311654 0.109969c-0.0119449,0.0421575 -0.0212126,0.0849606 -0.0273465,0.128157 -0.00578346,0.0407323 -0.0088622,0.0832244 -0.0088622,0.127433 0,0.131689 0.0267795,0.256543 0.0750984,0.369614 0.0504567,0.118079 0.124409,0.22387 0.215902,0.31172l0.0968189 0.0929646 -0.112654 0.0728661c-0.0380157,0.0245906 -0.0749055,0.0511378 -0.110457,0.0797165 -0.0342874,0.027563 -0.0668622,0.0566732 -0.0974921,0.0873622l-0.0658819 0.0660039 -0.0741181 -0.0564213c-0.0410197,-0.0312283 -0.0870472,-0.0560472 -0.136772,-0.0728898 -0.0471969,-0.0159921 -0.0981732,-0.0246732 -0.151815,-0.0246732 -0.132252,0 -0.251787,0.0533898 -0.338169,0.139705 -0.0861614,0.0860945 -0.139441,0.20539 -0.139441,0.337449 0,0.125909 0.0485354,0.240169 0.127866,0.325197 0.0800079,0.085752 0.191291,0.14198 0.315677,0.150673l0.0937913 0.00655512 0.00537795 0.0938622c0.00156299,0.0272756 0.00385433,0.0552874 0.0072126,0.0844724 0.00309055,0.0268386 0.00712992,0.0536181 0.0124291,0.0803583l0.013189 0.0665394 -0.055689 0.0401299c-0.109587,0.0789685 -0.172457,0.206094 -0.185142,0.348945 -0.013252,0.149244 0.0277402,0.314984 0.126563,0.463626l0.000188976 -0.000125984 0.00011811 0.000177165 0 0.000413386c0.100614,0.150965 0.241252,0.253642 0.387268,0.297583 0.13935,0.0419331 0.283004,0.0296102 0.397894,-0.0469213l1.1811e-005 1.9685e-005 8.66142e-005 -8.66142e-005c0.0269961,-0.017874 0.051252,-0.0386496 0.0727717,-0.0617795 0.0226378,-0.0243268 0.0423504,-0.0513386 0.0591339,-0.0803819l0.0397047 -0.0687087 0.077378 0.0187087c0.0487047,0.0117756 0.0980157,0.0211339 0.147713,0.0274803 0.0478031,0.0061063 0.0983819,0.00943307 0.151972,0.00943307 0.0541063,0 0.105047,-0.00333071 0.153122,-0.00948819 0.0498583,-0.00638583 0.0993661,-0.0158661 0.148398,-0.027878l0.077126 -0.0188976 0.0399567 0.0688976c0.0168425,0.0290433 0.0365669,0.0560669 0.0592087,0.0804646 0.0217362,0.0234213 0.0459488,0.0443504 0.0726339,0.062248l6.29921e-005 -9.84252e-005c0.115146,0.0765827 0.258866,0.088937 0.398224,0.047 0.146035,-0.0439449 0.286642,-0.146693 0.387283,-0.297772 0.0992953,-0.14911 0.140354,-0.31539 0.126874,-0.465016 -0.012874,-0.142898 -0.076126,-0.26998 -0.186201,-0.348681l-0.0556929 -0.0398228 0.0127756 -0.0668425c0.00496457,-0.0259961 0.00898031,-0.052878 0.0122008,-0.0803543 0.0033937,-0.0289488 0.00581102,-0.0569528 0.00744488,-0.0840591l0.00558268 -0.0926575 0.0923346 -0.00734252c0.123441,-0.00981496 0.233594,-0.0663819 0.312626,-0.151933 0.0784528,-0.0849291 0.126382,-0.198543 0.126382,-0.323484zm0.0110157 -0.488102c0.124992,0.125094 0.202323,0.297732 0.202323,0.488102 0,0.180374 -0.0694173,0.344638 -0.183051,0.46765 -0.094815,0.102638 -0.220346,0.176488 -0.361961,0.206976l-0.00102756 0.00901575c-0.00125984,0.0107717 -0.00264961,0.0215512 -0.00416142,0.0323346 0.129957,0.116181 0.204831,0.280535 0.221079,0.46087 0.0176339,0.195705 -0.0344449,0.41074 -0.161039,0.60085 -0.129272,0.194059 -0.312354,0.326776 -0.503953,0.384433 -0.198181,0.0596339 -0.405972,0.0398031 -0.576563,-0.0736614l-0.000413386 -0.000417323c-0.0413661,-0.0276575 -0.0782087,-0.0593228 -0.110614,-0.0942362 -0.0155906,-0.0167953 -0.0302126,-0.0343701 -0.043878,-0.0526378 -0.0322165,0.00628346 -0.0649803,0.0116181 -0.0983071,0.0158858 -0.0607598,0.00778346 -0.120807,0.0119921 -0.179791,0.0119921 -0.0584331,0 -0.11815,-0.0042126 -0.178642,-0.011937 -0.0329843,-0.0042126 -0.0654646,-0.00946457 -0.0974409,-0.0156378 -0.013689,0.0183031 -0.0283504,0.0359016 -0.0439843,0.0527047 -0.0327992,0.035252 -0.0698268,0.0669567 -0.111102,0.0942835l-1.1811e-005 -1.9685e-005 -8.66142e-005 8.66142e-005c-0.170268,0.113421 -0.378024,0.133228 -0.576232,0.0735827 -0.191453,-0.0576142 -0.374492,-0.190161 -0.503744,-0.383961l-0.000192913 0.000129921 -0.00011811 -0.000177165 0 -0.000413386c-0.126201,-0.18965 -0.178276,-0.40426 -0.160917,-0.599748 0.0159724,-0.179835 0.0902756,-0.343894 0.219449,-0.460197 -0.00154331,-0.0110236 -0.00295276,-0.0221181 -0.00423622,-0.0332795l-0.00102756 -0.00922835c-0.142815,-0.0295236 -0.269492,-0.102921 -0.365197,-0.2055 -0.115008,-0.123268 -0.18537,-0.288496 -0.18537,-0.470197 0,-0.190417 0.0774764,-0.363079 0.20278,-0.488283 0.125028,-0.124933 0.29761,-0.202209 0.488169,-0.202209 0.0766575,0 0.15063,0.0127874 0.220146,0.0363425 0.0424488,0.014378 0.0830827,0.0328268 0.121492,0.0548661 0.0167323,-0.0147913 0.0337756,-0.0291535 0.0511102,-0.0430866 0.00825197,-0.00663386 0.0165906,-0.013189 0.0250118,-0.0196614 -0.0722677,-0.086374 -0.13224,-0.183402 -0.177126,-0.288441 -0.0595827,-0.139425 -0.0926024,-0.29248 -0.0926024,-0.452945 0,-0.0520551 0.00394882,-0.104362 0.0113661,-0.156598 0.00259055,-0.0182559 0.00559843,-0.0363307 0.009,-0.0542205 -0.111898,-0.0426772 -0.209547,-0.114071 -0.283906,-0.205173 -0.0952835,-0.11674 -0.152413,-0.265528 -0.152413,-0.427425 0,-0.18715 0.0758504,-0.356579 0.198504,-0.47922 0.12265,-0.12263 0.292079,-0.198476 0.47926,-0.198476 0.154531,0 0.296823,0.0519921 0.410736,0.139413 0.0881614,0.0676575 0.159193,0.156508 0.205646,0.258862 0.0290394,-0.00741732 0.0584094,-0.0137165 0.0880709,-0.0188346 0.0614685,-0.0106024 0.12572,-0.0162283 0.192618,-0.0162126l0 -0.000417323c0.067748,0 0.135488,0.00655118 0.20261,0.0187677 0.0327441,0.00595669 0.064752,0.0131772 0.0959843,0.0215551 0.0456772,-0.103173 0.116291,-0.192764 0.204197,-0.261071 0.114602,-0.0890472 0.258461,-0.142063 0.414689,-0.142063 0.187138,0 0.356555,0.0758504 0.479185,0.198488 0.122638,0.122642 0.198484,0.292067 0.198484,0.479209 0,0.166165 -0.0602402,0.318429 -0.160075,0.436374 -0.0777205,0.0918228 -0.179555,0.162681 -0.295709,0.202917 0.00280315,0.0153031 0.00530315,0.030689 0.00749213,0.0461496 0.00746063,0.0527126 0.0114409,0.105571 0.0114409,0.158425 0,0.158339 -0.0319291,0.309406 -0.0897008,0.447114 -0.0430827,0.102705 -0.100768,0.198063 -0.170484,0.283531 0.01,0.0074685 0.0198819,0.0150512 0.0296457,0.022752 0.0197205,0.0155512 0.0391693,0.0317638 0.058315,0.048626 0.0380709,-0.0215512 0.0783622,-0.0396457 0.120461,-0.0537598 0.0689764,-0.023126 0.14215,-0.0357874 0.217642,-0.0357874 0.190358,0 0.362976,0.0775512 0.488173,0.202843z"/>
   <circle id="_420788488" class="fil1" cx="2.95182" cy="1.96364" r="0.111514"/>
   <circle id="_420788368" class="fil1" cx="3.84395" cy="1.96364" r="0.111514"/>
   <path id="_420788176" class="fil0" d="M3.41333 2.50673l0.182311 -0.182311c-0.0543031,-0.0383465 -0.118295,-0.0575276 -0.182311,-0.0575276 -0.0640157,0 -0.128004,0.0191811 -0.182311,0.0575276l0.182311 0.182311zm0.298654 -0.147819l-0.260622 0.260622 -0.000318898 0.000326772c-0.0208268,0.0208268 -0.0545984,0.0208268 -0.0754252,0l3.93701e-006 -3.93701e-006 -0.260642 -0.260642c-0.00042126,-0.000413386 -0.000838583,-0.000834646 -0.00124409,-0.00126378l-0.000362205 -0.000389764 -0.000503937 -0.000543307 -0.000464567 -0.000523622 -0.000425197 -0.000484252 -0.000429134 -0.000503937 -0.000405512 -0.000484252 -0.000653543 -0.000814961 -8.26772e-005 -0.000102362 -0.000681102 -0.000889764 -0.000122047 -0.000161417 -0.000669291 -0.000917323 -6.69291e-005 -9.05512e-005 -0.000688976 -0.000996063 -3.54331e-005 -5.11811e-005 -0.000653543 -0.000992126 -7.08661e-005 -0.000110236 -0.000582677 -0.000937008 -0.000137795 -0.000224409 -0.000492126 -0.000830709 -0.000188976 -0.000330709 -0.000433071 -0.000775591 -0.000200787 -0.000366142 -0.00042126 -0.000799213 -0.000173228 -0.00034252 -0.000377953 -0.000759843 -0.000287402 -0.000602362 -0.000208661 -0.000444882 -0.000330709 -0.00073622 -0.000224409 -0.000511811 -0.000259843 -0.00061811 -0.000244094 -0.000594488 -0.00030315 -0.000783465 -0.000102362 -0.000259843c-0.000594488,-0.0015748 -0.00111024,-0.00318898 -0.00155512,-0.00483071l0 -7.87402e-006c-0.00065748,-0.00244882 -0.00114961,-0.00496457 -0.00146063,-0.00753937l-7.87402e-006 -5.90551e-005 -0.000125984 -0.00115354 -3.54331e-005 -0.000425197 -6.69291e-005 -0.000807087 -3.93701e-005 -0.000582677 -4.72441e-005 -0.00080315 -3.93701e-006 -8.66142e-005c-3.54331e-005,-0.000826772 -5.90551e-005,-0.00164961 -5.90551e-005,-0.00248031l0 -3.93701e-006c-3.93701e-006,-0.0136496 0.00520866,-0.0272992 0.015622,-0.0377126l3.93701e-006 3.93701e-006c0.0821732,-0.0821732 0.190445,-0.123268 0.298654,-0.123268 0.107925,0 0.215902,0.0408819 0.297996,0.122622l0.000661417 0.000645669c0.0208268,0.0208268 0.0208268,0.0545984 0,0.0754252l-3.93701e-006 -3.93701e-006z"/>
   <path id="_420787912" class="fil0" d="M3.20863 3.03794c0,0.0187717 0.0076063,0.0357677 0.0199016,0.048063 0.0122913,0.0122913 0.0292913,0.0199016 0.048063,0.0199016 0.0187717,0 0.0357677,-0.00761024 0.0480591,-0.0199016 0.0122913,-0.0122913 0.0199016,-0.0292913 0.0199016,-0.048063l0 -0.24865 0.106669 0 0 0.24865c0,0.0482165 -0.0195512,0.0918819 -0.0511535,0.12348 -0.0315984,0.0316024 -0.0752598,0.0511535 -0.123476,0.0511535 -0.0482165,0 -0.0918819,-0.0195551 -0.12348,-0.0511535 -0.0316024,-0.0316024 -0.0511535,-0.0752638 -0.0511535,-0.12348l0.106669 0z"/>
   <path id="_420788224" class="fil0" d="M3.69382 3.03794c0,0.0482165 -0.0195512,0.091878 -0.0511535,0.12348 -0.0315984,0.0315984 -0.0752638,0.0511535 -0.12348,0.0511535 -0.0482126,0 -0.091874,-0.0195512 -0.12348,-0.0511535 -0.0316024,-0.0316024 -0.0511535,-0.0752638 -0.0511535,-0.12348l0 -0.24865 0.106669 0 0 0.24865c0,0.0187717 0.0076063,0.0357677 0.0199016,0.048063 0.0122913,0.0122913 0.0292874,0.0199016 0.048063,0.0199016 0.0187717,0 0.0357717,-0.00761024 0.048063,-0.0199016 0.0122953,-0.0122953 0.0199016,-0.0292913 0.0199016,-0.048063l0.106669 0z"/>
  </g>
  <g id="_420787528">
   <rect id="_420788344" class="fil2" width="6.82666" height="6.82666"/>
   <rect id="_420787360" class="fil2" x="0.853331" y="0.853331" width="5.12" height="5.12"/>
  </g>
 </g>
</svg>
