<svg xmlns="http://www.w3.org/2000/svg" width="655.36" height="655.36" fill-rule="evenodd" clip-rule="evenodd" image-rendering="optimizeQuality" shape-rendering="geometricPrecision" text-rendering="geometricPrecision" viewBox="0 0 6.83 6.83">
  <g id="Layer_x0020_1">
    <g id="_420792760">
      <path id="_420793048" d="M1.17 3.46h1.6a.32.32 0 0 1 .33.32v1.6a.32.32 0 0 1-.32.32h-1.6a.32.32 0 0 1-.33-.32v-1.6a.32.32 0 0 1 .32-.32zm1.6.21h-1.6a.1.1 0 0 0-.07.03.1.1 0 0 0-.03.08v1.6c0 .03 0 .06.03.08a.1.1 0 0 0 .07.03h1.6a.1.1 0 0 0 .08-.03.1.1 0 0 0 .03-.08v-1.6a.1.1 0 0 0-.03-.08.1.1 0 0 0-.07-.03z" class="fil0"/>
      <path id="_420792976" d="M1.44 5.15L1.88 4h.16l.47 1.14h-.18L2.2 4.8h-.47l-.13.35h-.16zm.33-.47h.39l-.12-.31a3.1 3.1 0 0 1-.08-.24l-.06.22-.13.33z" class="fil0"/>
      <path id="_420792880" d="M4.05 3.46h1.6a.32.32 0 0 1 .32.32v1.6a.32.32 0 0 1-.31.32H4.05a.32.32 0 0 1-.32-.32v-1.6a.32.32 0 0 1 .32-.32zm1.6.21h-1.6a.1.1 0 0 0-.08.03.1.1 0 0 0-.03.08v1.6c0 .03.02.06.03.08a.1.1 0 0 0 .08.03h1.6a.1.1 0 0 0 .08-.03.1.1 0 0 0 .03-.08v-1.6a.1.1 0 0 0-.03-.08.1.1 0 0 0-.07-.03z" class="fil0"/>
      <path id="_420792448" d="M4.42 5.15V4h.43c.09 0 .16.01.2.04.06.02.1.06.13.1.03.05.05.1.05.15 0 .05-.02.1-.04.14a.28.28 0 0 1-.12.1.3.3 0 0 1 .15.1c.04.06.06.11.06.18a.33.33 0 0 1-.12.25.35.35 0 0 1-.12.06.75.75 0 0 1-.18.02h-.44zm.15-.66h.25l.14-.01a.16.16 0 0 0 .09-.06.16.16 0 0 0 .03-.1c0-.04-.01-.07-.03-.1a.14.14 0 0 0-.08-.06.65.65 0 0 0-.17-.01h-.23v.34zm0 .52h.39c.03 0 .06-.02.08-.03a.16.16 0 0 0 .06-.07.2.2 0 0 0 .02-.1.19.19 0 0 0-.03-.1.17.17 0 0 0-.09-.07.57.57 0 0 0-.16-.02h-.27v.4z" class="fil0"/>
      <path id="_420792616" d="M2.61 1.12h1.6a.32.32 0 0 1 .32.32v1.61a.32.32 0 0 1-.31.32H2.6a.32.32 0 0 1-.32-.32v-1.6a.32.32 0 0 1 .32-.33zm1.6.22h-1.6a.1.1 0 0 0-.07.03.1.1 0 0 0-.03.07v1.61c0 .03 0 .05.03.07a.1.1 0 0 0 .07.03h1.6a.1.1 0 0 0 .08-.03.1.1 0 0 0 .03-.07v-1.6a.1.1 0 0 0-.03-.08.1.1 0 0 0-.07-.03z" class="fil0"/>
      <path id="_420792568" d="M3.76 2.42l.15.03a.5.5 0 0 1-.17.29.47.47 0 0 1-.3.1.54.54 0 0 1-.3-.08.47.47 0 0 1-.17-.22.78.78 0 0 1 0-.61c.05-.09.12-.16.2-.2a.56.56 0 0 1 .28-.07c.11 0 .2.03.28.09.08.05.13.14.17.24l-.15.04a.35.35 0 0 0-.12-.19.3.3 0 0 0-.19-.05.37.37 0 0 0-.21.06c-.06.04-.1.1-.13.17a.67.67 0 0 0-.03.22c0 .1.01.18.04.25s.07.13.13.16c.06.04.12.05.2.05.08 0 .15-.02.2-.07.06-.05.1-.12.12-.21z" class="fil0"/>
    </g>
    <g id="_420791824">
      <path id="_420792232" d="M0 0h6.83v6.83H0z" class="fil1"/>
      <path id="_420791944" d="M.85.85h5.12v5.12H.85z" class="fil1"/>
    </g>
  </g>
</svg>