<?xml version="1.0" encoding="UTF-8"?>
<!DOCTYPE svg PUBLIC "-//W3C//DTD SVG 1.1//EN" "http://www.w3.org/Graphics/SVG/1.1/DTD/svg11.dtd">
<!-- Creator: CorelDRAW -->
<svg xmlns="http://www.w3.org/2000/svg" xml:space="preserve" width="6.82666in" height="6.82666in" style="shape-rendering:geometricPrecision; text-rendering:geometricPrecision; image-rendering:optimizeQuality; fill-rule:evenodd; clip-rule:evenodd"
viewBox="0 0 6.82666 6.82666"
 xmlns:xlink="http://www.w3.org/1999/xlink">
 <defs>
  <style type="text/css">
   <![CDATA[
    .fil1 {fill:none}
    .fil0 {fill:#ffffff;fill-rule:nonzero}
   ]]>
  </style>
 </defs>
 <g id="Layer_x0020_1">
  <metadata id="CorelCorpID_0Corel-Layer"/>
  <g id="_420795400">
   <path id="_420795736" class="fil0" d="M4.70874 5.8551c-0.00993307,0 -0.022378,-0.000444882 -0.0374646,-0.0013622 -0.0144606,-0.00088189 -0.027,-0.00196457 -0.037374,-0.00325197l-0.0316654 -0.00916929 -0.058752 -0.0271575c-0.392354,-0.150307 -0.339079,-0.390177 -0.271004,-0.696445l0.000311024 -0.00140551 0 -0.000417323c0.00567717,-0.0250354 0.0116969,-0.0522835 0.0188701,-0.0883425 0.00612992,-0.0308386 0.0114055,-0.0603622 0.0149961,-0.0869055 0.0296929,-0.353386 -0.152091,-0.568327 -0.32778,-0.776004l-0.000503937 -0.000594488c-0.0784134,-0.0928858 -0.154539,-0.183059 -0.217984,-0.286441 -0.0659606,-0.107484 -0.115677,-0.225535 -0.135362,-0.367622 -0.0106181,-0.0751535 -0.00771654,-0.144807 0.00846457,-0.208563 0.0170354,-0.0671181 0.0483425,-0.127059 0.0936417,-0.179417l0.000417323 -0.000417323c0.0979134,-0.112303 0.248614,-0.174937 0.402996,-0.208945 0.144559,-0.0318504 0.29302,-0.0390945 0.398917,-0.0390945 0.0776378,0 0.151909,0.00367717 0.217457,0.00920079 0.0793898,0.00669685 0.147866,0.0166614 0.194469,0.0262598l0.00374803 0.000830709c0.258799,0.0624252 0.44861,0.235315 0.568508,0.516677 0.111992,0.262803 0.161272,0.62289 0.147008,1.0784l0 0.000830709c-0.0105669,0.257969 -0.124638,0.655189 -0.322449,0.946843 -0.157571,0.232327 -0.369287,0.402512 -0.629465,0.402512zm-0.0249606 -0.213866c0.00584252,0.000354331 0.0142441,0.000527559 0.0249606,0.000527559 0.178457,0 0.332925,-0.130366 0.45363,-0.308339 0.175406,-0.258622 0.276484,-0.60911 0.28578,-0.836008l2.3622e-005 0c0.013189,-0.423512 -0.0305118,-0.753252 -0.130362,-0.987571 -0.0917992,-0.215425 -0.232421,-0.346917 -0.421154,-0.392961 -0.0369606,-0.00746063 -0.094937,-0.0155354 -0.16724,-0.0216339 -0.0596024,-0.00502362 -0.127764,-0.00836614 -0.199953,-0.00836614 -0.0948504,0 -0.227039,0.0063189 -0.353083,0.0340866 -0.115976,0.0255512 -0.225646,0.0684882 -0.288441,0.140173l2.75591e-005 2.3622e-005c-0.0230512,0.0266417 -0.0390354,0.0573543 -0.0478071,0.0919213 -0.0095315,0.0375551 -0.0110118,0.0802047 -0.00429921,0.127728 0.0151142,0.109094 0.0541811,0.201193 0.106197,0.285953 0.0545315,0.0888543 0.125606,0.173047 0.198819,0.259772l0.000503937 0.000594488c0.204504,0.241736 0.416165,0.491933 0.376567,0.936543l-0.000417323 0.005c-0.0048622,0.0360669 -0.0105866,0.0689213 -0.0167047,0.0997047 -0.0051063,0.0256772 -0.0126575,0.0594606 -0.0205315,0.0941772l-8.66142e-005 -1.9685e-005 -0.000224409 0.00100787c-0.0458031,0.206071 -0.0816535,0.36739 0.141634,0.452343l0.00666535 0.00291732 0.0470512 0.021748c0.00317323,0.00030315 0.00598819,0.000527559 0.00844488,0.000677165z"/>
   <path id="_420794728" class="fil0" d="M3.62078 2.08427c0.0837559,0 0.166291,0.0361693 0.236083,0.0983307 0.0648031,0.0577205 0.119327,0.138839 0.15289,0.233913l-0.000185039 6.29921e-005c0.0201142,0.0561181 0.0315472,0.113252 0.0342165,0.168736 0.00273228,0.0568071 -0.0037126,0.112508 -0.0193819,0.164346l0.000212598 6.29921e-005c-0.0154646,0.0512362 -0.0392638,0.095752 -0.0699921,0.131732 -0.0326102,0.038185 -0.0725157,0.0664016 -0.118209,0.0827323l-0.00162992 0.000326772c-0.0144961,0.00488583 -0.0292126,0.00865748 -0.0439567,0.011126 -0.0153898,0.00258268 -0.0304882,0.00394882 -0.0450984,0.00394882 -0.0836811,0 -0.166126,-0.0362165 -0.235874,-0.0982638 -0.0648622,-0.0577008 -0.119469,-0.138819 -0.153098,-0.233642l0 -0.000165354 -5.11811e-005 1.9685e-005c-0.0402677,-0.113913 -0.0439488,-0.230091 -0.0173701,-0.325697 0.0294252,-0.105846 0.0954173,-0.188315 0.190945,-0.222122l0.00244094 -0.000732283c0.0142244,-0.00487795 0.0283701,-0.0084685 0.0425118,-0.0108268 0.0156969,-0.00261417 0.0308346,-0.00388976 0.0455472,-0.00388976zm0.125406 0.222677c-0.039752,-0.0354055 -0.0837441,-0.0560079 -0.125406,-0.0560079 -0.00695276,0 -0.0130236,0.00042126 -0.0182008,0.00128346 -0.00595276,0.000988189 -0.0116142,0.00241339 -0.0169961,0.00429134l3.54331e-005 0.000102362c-0.0411732,0.0145709 -0.0710827,0.0553819 -0.086126,0.109492 -0.0178898,0.0643583 -0.0146102,0.14485 0.0141102,0.226091l0 0.000165354 5.11811e-005 -1.9685e-005c0.0240039,0.0676811 0.0620984,0.124799 0.106878,0.164634 0.0397047,0.0353189 0.0836181,0.0559409 0.125197,0.0559409 0.00660236,0 0.0125236,-0.000464567 0.017752,-0.00134252 0.00598031,-0.001 0.0116654,-0.00238583 0.0170079,-0.00410236l-6.69291e-005 -0.000185039c0.0182047,-0.00650394 0.0343858,-0.0180748 0.0479016,-0.0339055 0.0155472,-0.0182087 0.0280551,-0.042252 0.0367874,-0.071189l0.000326772 -0.000322835c0.0100906,-0.0332677 0.014185,-0.0701457 0.0123307,-0.108748 -0.00190945,-0.0397205 -0.010126,-0.0806732 -0.0245906,-0.120945l-0.000322835 -0.000326772c-0.024,-0.0679921 -0.0620157,-0.12513 -0.106669,-0.164906z"/>
   <path id="_420795304" class="fil0" d="M4.28468 2.22788c0.054874,0 0.106945,0.0265 0.148102,0.0705945 0.0351024,0.0376024 0.062937,0.0894843 0.0765315,0.148l0 0.000326772c0.0149016,0.0657362 0.00998819,0.130827 -0.0100472,0.182906 -0.0242008,0.0629291 -0.0699291,0.108988 -0.131531,0.12339l3.54331e-005 0.000145669c-0.00527559,0.00125591 -0.0113622,0.00232283 -0.0181299,0.00312205l3.93701e-006 3.93701e-005c-0.00640945,0.000759843 -0.012626,0.00117717 -0.0184488,0.00117717 -0.0544449,0 -0.10713,-0.0270236 -0.148618,-0.0714213 -0.0352835,-0.037748 -0.0634134,-0.0897362 -0.0764764,-0.147807l-1.9685e-005 -8.66142e-005 -7.08661e-005 1.5748e-005c-0.0151339,-0.0658189 -0.0103976,-0.130909 0.00947638,-0.182815 0.0241299,-0.0630118 0.0701378,-0.109264 0.132283,-0.12365l0.000326772 0 0.000122047 -2.75591e-005 0.00650787 -0.00129921c0.0022874,-0.000322835 0.00520866,-0.000716535 0.0123307,-0.00143307 0.00692913,-0.00069685 0.013189,-0.00117717 0.017622,-0.00117717zm0.0263622 0.183878c-0.0100315,-0.010748 -0.0194882,-0.0172087 -0.0263622,-0.0172087 -0.00118504,0 -0.00114961,-7.48031e-005 -0.0011063,-0.00011811 -0.00395669,0.00211417 -0.00838583,0.00956693 -0.0124882,0.0202795 -0.00881496,0.0230157 -0.0105,0.053685 -0.00296457,0.0864606l0 0.000326772 9.05512e-005 0.000397638c0.00640551,0.0284724 0.0196732,0.0533976 0.0361063,0.0709803 0.010248,0.0109685 0.0197953,0.0177402 0.0264449,0.0180276 0.00444488,-0.00168898 0.00927165,-0.00929134 0.0135591,-0.0204409 0.00877953,-0.0228268 0.0104449,-0.0535945 0.00295276,-0.0868937l-7.08661e-005 1.5748e-005c-0.00681102,-0.0293268 -0.0199409,-0.0544528 -0.0361614,-0.0718268zm0.0189685 0.179374l0.000114173 -2.75591e-005 -3.93701e-006 -3.54331e-005 -0.000653543 6.29921e-005 0.000543307 0zm0.000114173 -2.75591e-005l0.00019685 -5.51181e-005 -0.000200787 1.9685e-005 3.93701e-006 3.54331e-005zm0.000228346 -6.29921e-005l0.000149606 -4.72441e-005 -0.000385827 4.72441e-005 0.00023622 0zm8.66142e-005 0c0.000377953,-4.33071e-005 0.000244094,-3.14961e-005 -4.33071e-005,0l4.33071e-005 0z"/>
   <path id="_420794920" class="fil0" d="M4.57411 2.51274c0.00311024,-0.0527441 0.0209291,-0.100823 0.0474961,-0.136323 0.0315197,-0.0421142 0.0754646,-0.0678661 0.124764,-0.0678661l0.00338583 0.00026378c0.0239331,0.00122047 0.0467638,0.00937008 0.0673976,0.0235512l-8.26772e-005 0.000122047c0.0179567,0.012378 0.0338898,0.029 0.0468071,0.0490709l-6.29921e-005 4.33071e-005c0.013811,0.0212835 0.0239409,0.045563 0.0299921,0.0715236 0.00577559,0.0247835 0.00798819,0.0515118 0.00628346,0.0789252 -0.00307087,0.0518543 -0.0201969,0.0996339 -0.0453701,0.134921 -0.0307047,0.0430512 -0.0738858,0.0696969 -0.122217,0.0696969l-0.00433465 0 -0.0044252 -0.00026378c-0.0237283,-0.00166535 -0.0463386,-0.00973622 -0.0666772,-0.0236417 -0.0175512,-0.0120118 -0.0334016,-0.0285748 -0.0465945,-0.0492047l-0.00011811 7.48031e-005c-0.0136457,-0.0212244 -0.0237323,-0.0456339 -0.029878,-0.0719528l-5.90551e-005 1.1811e-005c-0.00577559,-0.0248268 -0.00799213,-0.0515433 -0.00630709,-0.0789528zm0.153748 -0.0566378c-0.0115354,0.0154134 -0.0193819,0.0380472 -0.020937,0.0644488 -0.000885827,0.0144134 0.00023622,0.0282638 0.0031811,0.040937l0 0.000259843c0.00262992,0.0113228 0.00676378,0.0215118 0.0122283,0.0300118l0 0.000259843c0.00316929,0.0049685 0.00648031,0.00861811 0.00973622,0.0108465 0.000295276,0.000200787 0.000374016,0.000354331 0.000389764,0.000464567l4.72441e-005 0c0.0028622,0 0.00796457,-0.00514173 0.0138858,-0.0134449 0.0114488,-0.0160472 0.0193268,-0.0392087 0.0208898,-0.0656457 0.000897638,-0.0144291 -0.000216535,-0.0282874 -0.00315748,-0.0409094 -0.00268898,-0.0115394 -0.00673622,-0.0216181 -0.0119606,-0.0296378l-0.000259843 -0.000259843c-0.00324016,-0.00503937 -0.00625984,-0.00870472 -0.00892913,-0.010878 -0.00458268,0.00169291 -0.00987008,0.00653937 -0.0151142,0.0135472z"/>
   <path id="_420794848" class="fil0" d="M4.94491 2.57566c0.0125866,-0.0480433 0.0368583,-0.0907283 0.0668504,-0.121846l-7.87402e-006 -7.87402e-006c0.0361772,-0.0374055 0.0816299,-0.059878 0.12911,-0.059878 0.00535827,0 0.0113031,0.000267717 0.0179567,0.00108661 0.00499606,0.000614173 0.0105079,0.00168898 0.0166299,0.00341339l7.87402e-006 -3.93701e-005c0.0267913,0.00633071 0.0506614,0.0200236 0.070626,0.0399764 0.0169882,0.0169803 0.0309449,0.0385709 0.0410118,0.0638228l0.000322835 0.000649606c0.00973622,0.0250433 0.0152244,0.0527087 0.0161969,0.0815197 0.000909449,0.0270354 -0.00216142,0.0550709 -0.00945276,0.0827283l-7.87402e-005 -1.9685e-005 -9.84252e-005 0.00038189c-0.0138189,0.0531142 -0.0434173,0.100181 -0.078937,0.131976 -0.044122,0.0394961 -0.0991772,0.0580945 -0.152961,0.044311l-0.000649606 0 -0.000208661 -5.51181e-005 1.9685e-005 -7.87402e-005c-0.0227087,-0.0059685 -0.0414961,-0.0166102 -0.0568583,-0.0292638 -0.0183898,-0.0151496 -0.0311457,-0.0322913 -0.0395866,-0.0470394l0.000204724 -0.00011811c-0.0159016,-0.0273701 -0.0255157,-0.0594646 -0.0286102,-0.0932953 -0.00291732,-0.0318268 -0.000177165,-0.0655394 0.00843307,-0.0982441l7.87402e-005 1.9685e-005zm0.186307 -0.00629528c-0.0111142,0.0114882 -0.0203898,0.0283583 -0.0255827,0.0482677l0 0.000322835c-0.00376378,0.0143071 -0.00502756,0.0283465 -0.00387402,0.0409528 0.000551181,0.00604724 0.00160236,0.0115551 0.00313386,0.0163425 0.0123661,-0.0112913 0.0229173,-0.0288386 0.0282874,-0.0494724l0.000177165 -0.000685039 0 -0.000322835c0.00323228,-0.0122598 0.00461024,-0.0241772 0.00424016,-0.0352087 -0.000275591,-0.00825197 -0.00154331,-0.0159803 -0.00374016,-0.0228898l-0.0023189 0.00237008 -0.000322835 0.000322835z"/>
   <path id="_420794752" class="fil0" d="M5.30941 2.79997c0.0129173,-0.0363386 0.0370709,-0.0684843 0.0661693,-0.0915 0.0313189,-0.0247598 0.069185,-0.0398346 0.106736,-0.0398346 0.00847638,0 0.016689,7.87402e-006 0.0287795,0.00311417 0.0192087,0.00407087 0.0369724,0.012374 0.052563,0.0242717 0.0154646,0.0118031 0.0285669,0.0270433 0.0384803,0.0450079l0.000259843 0.000779528c0.0113386,0.0211575 0.0175157,0.0442717 0.0185276,0.0683583 0.000933071,0.0222441 -0.0026063,0.0450709 -0.0106339,0.0676102l4.33071e-005 1.5748e-005c-0.0125906,0.0369173 -0.0370118,0.0696654 -0.0666181,0.0929449 -0.0312795,0.0245945 -0.0694252,0.039685 -0.107441,0.039685 -0.0032126,0 -0.00766929,-0.000283465 -0.0132165,-0.000862205l3.93701e-006 -2.75591e-005c-0.00535827,-0.000547244 -0.00995669,-0.00121654 -0.0133622,-0.00196457l3.54331e-005 -0.00015748c-0.0200669,-0.00425984 -0.0384134,-0.0126063 -0.0543543,-0.0247677 -0.0155551,-0.0118661 -0.0286378,-0.0271496 -0.0385709,-0.045563l7.08661e-005 -3.93701e-005c-0.011378,-0.0207992 -0.0175787,-0.0439016 -0.0185984,-0.0680197 -0.000956693,-0.0226378 0.00275197,-0.0460827 0.0111102,-0.0690591l1.5748e-005 7.87402e-006zm0.148461 0.0126654c-0.0103543,0.00818898 -0.0188504,0.0194055 -0.0232165,0.0318583l-0.000259843 0.000783465c-0.00243307,0.00668898 -0.0035315,0.0129764 -0.00329921,0.0185394 0.000153543,0.00365354 0.000952756,0.00688189 0.00238583,0.00946063l0.000519685 0.000779528c0.000759843,0.00141339 0.00147638,0.00237008 0.00211417,0.00285433l0.000251969 0.000173228c0.00740157,-3.54331e-005 0.0164016,-0.00422441 0.0250591,-0.0110315 0.0104291,-0.00820079 0.0188425,-0.0191496 0.0228701,-0.0309685l0.000519685 -0.00130315c0.00242913,-0.00667717 0.0035315,-0.0128937 0.00329921,-0.0184094 -0.000153543,-0.00372441 -0.001,-0.00722441 -0.00253543,-0.0103425l-0.000110236 6.29921e-005c-0.000838583,-0.00152362 -0.00166535,-0.00262205 -0.0024252,-0.00324409l-0.000728346 -0.000173228 0 0.000295276c-0.000185039,-0.000102362 -0.00878346,-0.00259449 -0.00425591,-0.00131102l0.00425591 0.00101575 0 0.000295276 0 3.93701e-006c-0.00730315,0 -0.016063,0.00403543 -0.0244449,0.0106614zm-0.0215945 0.0646299l0 -7.87402e-006c-0.000283465,-2.3622e-005 -0.00038189,-3.14961e-005 0,7.87402e-006zm0.000523622 2.3622e-005c0.000255906,2.3622e-005 0.00011811,0 -0.000106299,-3.93701e-005l0.000106299 3.93701e-005zm-0.000523622 -3.14961e-005l0 7.87402e-006 6.69291e-005 3.93701e-006 8.26772e-005 0 -0.000149606 -1.1811e-005zm0.00124803 9.84252e-005l-0.00069685 -5.51181e-005 0.000216535 5.51181e-005 0.000480315 0z"/>
  </g>
  <g id="_420794032">
   <path id="_420794824" class="fil0" d="M2.11792 4.55239c0.0107165,0 0.0191181,-0.000173228 0.0249606,-0.000527559 0.00245669,-0.000149606 0.00527165,-0.000374016 0.00844488,-0.000677165l0.0470512 -0.021748 0.00666535 -0.00291732c0.223287,-0.0849528 0.187437,-0.246272 0.141634,-0.452343l-0.000224409 -0.00100787 -8.66142e-005 1.9685e-005c-0.00787402,-0.0347165 -0.0154252,-0.0685 -0.0205315,-0.0941772 -0.00611811,-0.0307835 -0.0118425,-0.0636378 -0.0167047,-0.0997047l-0.000417323 -0.005c-0.0395984,-0.44461 0.172063,-0.694807 0.376567,-0.936543l0.000503937 -0.000594488c0.0732126,-0.0867244 0.144287,-0.170917 0.198819,-0.259772 0.0520157,-0.0847598 0.0910827,-0.176862 0.106197,-0.285953 0.0067126,-0.0475236 0.00523228,-0.0901732 -0.00429921,-0.127728 -0.00877165,-0.0345669 -0.0247559,-0.0652795 -0.0478071,-0.0919213l2.75591e-005 -2.3622e-005c-0.0627953,-0.071685 -0.172465,-0.114622 -0.288441,-0.140173 -0.126043,-0.0277677 -0.258232,-0.0340866 -0.353083,-0.0340866 -0.072189,0 -0.14035,0.00334252 -0.199953,0.00836614 -0.0723031,0.00609843 -0.13028,0.0141732 -0.16724,0.0216339 -0.188732,0.0460433 -0.329354,0.177535 -0.421154,0.392961 -0.0998504,0.234319 -0.143551,0.564059 -0.130362,0.987571l2.3622e-005 0c0.00929528,0.226898 0.110374,0.577386 0.28578,0.836008 0.120705,0.177972 0.275173,0.308339 0.45363,0.308339zm0.0374646 0.211976c-0.0150866,0.000917323 -0.0275315,0.0013622 -0.0374646,0.0013622 -0.260177,0 -0.471894,-0.170185 -0.629465,-0.402512 -0.197811,-0.291654 -0.311882,-0.688874 -0.322449,-0.946843l0 -0.000830709c-0.0142638,-0.455512 0.0350157,-0.815598 0.147008,-1.0784 0.119898,-0.281362 0.309709,-0.454252 0.568508,-0.516677l0.00374803 -0.000830709c0.0466024,-0.00959843 0.115079,-0.019563 0.194469,-0.0262598 0.0655472,-0.00552362 0.139819,-0.00920079 0.217457,-0.00920079 0.105898,0 0.254358,0.00724409 0.398917,0.0390945 0.154382,0.0340079 0.305083,0.0966417 0.402996,0.208945l0.000417323 0.000417323c0.0452992,0.0523583 0.0766063,0.112299 0.0936417,0.179417 0.0161811,0.0637559 0.0190827,0.133409 0.00846457,0.208563 -0.019685,0.142083 -0.0694016,0.260138 -0.135362,0.367622 -0.0634449,0.103382 -0.139571,0.193555 -0.217984,0.286441l-0.000503937 0.000594488c-0.175689,0.207677 -0.357472,0.422618 -0.32778,0.776004 0.00359055,0.0265433 0.00886614,0.0560669 0.0149961,0.0869055 0.00717323,0.0360591 0.0131929,0.0633071 0.0188701,0.0883425l0 0.000417323 0.000311024 0.00140551c0.0680748,0.306268 0.12135,0.546138 -0.271004,0.696445l-0.058752 0.0271575 -0.0316654 0.00916929c-0.010374,0.0012874 -0.0229134,0.00237008 -0.037374,0.00325197z"/>
   <path id="_420794896" class="fil0" d="M3.20589 1.16156c-0.0416614,0 -0.0856535,0.0206024 -0.125406,0.0560079 -0.0446535,0.0397756 -0.0826693,0.0969134 -0.106669,0.164906l-0.000322835 0.000326772c-0.0144646,0.0402717 -0.0226811,0.0812244 -0.0245906,0.120945 -0.00185433,0.0386024 0.00224016,0.0754803 0.0123307,0.108748l0.000326772 0.000322835c0.00873228,0.028937 0.0212402,0.0529803 0.0367874,0.071189 0.0135157,0.0158307 0.0296969,0.0274016 0.0479016,0.0339055l-6.69291e-005 0.000185039c0.00534252,0.00171654 0.0110276,0.00310236 0.0170079,0.00410236 0.00522835,0.000877953 0.0111496,0.00134252 0.017752,0.00134252 0.0415787,0 0.0854921,-0.020622 0.125197,-0.0559409 0.0447795,-0.0398346 0.082874,-0.0969528 0.106878,-0.164634l5.11811e-005 1.9685e-005 0 -0.000165354c0.0287205,-0.0812402 0.032,-0.161732 0.0141102,-0.226091 -0.0150433,-0.0541102 -0.0449528,-0.0949213 -0.086126,-0.109492l3.54331e-005 -0.000102362c-0.00538189,-0.00187795 -0.0110433,-0.00330315 -0.0169961,-0.00429134 -0.00517717,-0.000862205 -0.011248,-0.00128346 -0.0182008,-0.00128346zm-0.236083 -0.0683386c0.0697913,-0.0621614 0.152327,-0.0983307 0.236083,-0.0983307 0.0147126,0 0.0298504,0.00127559 0.0455472,0.00388976 0.0141417,0.00235827 0.0282874,0.00594882 0.0425118,0.0108268l0.00244094 0.000732283c0.0955276,0.0338071 0.16152,0.116276 0.190945,0.222122 0.0265787,0.0956063 0.0228976,0.211783 -0.0173701,0.325697l-5.11811e-005 -1.9685e-005 0 0.000165354c-0.0336299,0.0948228 -0.0882362,0.175941 -0.153098,0.233642 -0.069748,0.0620472 -0.152193,0.0982638 -0.235874,0.0982638 -0.0146102,0 -0.0297087,-0.00136614 -0.0450984,-0.00394882 -0.0147441,-0.0024685 -0.0294606,-0.00624016 -0.0439567,-0.011126l-0.00162992 -0.000326772c-0.0456929,-0.0163307 -0.0855984,-0.0445472 -0.118209,-0.0827323 -0.0307283,-0.0359803 -0.0545276,-0.0804961 -0.0699921,-0.131732l0.000212598 -6.29921e-005c-0.0156693,-0.0518386 -0.0221142,-0.107539 -0.0193819,-0.164346 0.00266929,-0.0554843 0.0141024,-0.112618 0.0342165,-0.168736l-0.000185039 -6.29921e-005c0.033563,-0.0950748 0.0880866,-0.176193 0.15289,-0.233913z"/>
   <path id="_420795040" class="fil0" d="M2.54198 1.30517c-0.00687402,0 -0.0163307,0.00646063 -0.0263622,0.0172087 -0.0162205,0.017374 -0.0293504,0.0425 -0.0361614,0.0718268l-7.08661e-005 -1.5748e-005c-0.00749213,0.0332992 -0.00582677,0.0640669 0.00295276,0.0868937 0.0042874,0.0111496 0.00911417,0.018752 0.0135591,0.0204409 0.00664961,-0.000287402 0.0161969,-0.00705906 0.0264449,-0.0180276 0.0164331,-0.0175827 0.0297008,-0.0425079 0.0361063,-0.0709803l9.05512e-005 -0.000397638 0 -0.000326772c0.00753543,-0.0327756 0.00585039,-0.0634449 -0.00296457,-0.0864606 -0.00410236,-0.0107126 -0.0085315,-0.0181654 -0.0124882,-0.0202795 4.33071e-005,4.33071e-005 7.87402e-005,0.00011811 -0.0011063,0.00011811zm-0.148102 -0.0960748c0.0411575,-0.0440945 0.0932283,-0.0705945 0.148102,-0.0705945 0.00443307,0 0.0106929,0.000480315 0.017622,0.00117717 0.00712205,0.000716535 0.0100433,0.00111024 0.0123307,0.00143307l0.00650787 0.00129921 0.000122047 2.75591e-005 0.000326772 0c0.0621457,0.0143858 0.108154,0.0606378 0.132283,0.12365 0.019874,0.0519055 0.0246102,0.116996 0.00947638,0.182815l-7.08661e-005 -1.5748e-005 -1.9685e-005 8.66142e-005c-0.013063,0.0580709 -0.0411929,0.110059 -0.0764764,0.147807 -0.0414882,0.0443976 -0.0941732,0.0714213 -0.148618,0.0714213 -0.00582283,0 -0.0120394,-0.000417323 -0.0184488,-0.00117717l3.93701e-006 -3.93701e-005c-0.00676772,-0.000799213 -0.0128543,-0.00186614 -0.0181299,-0.00312205l3.54331e-005 -0.000145669c-0.0616024,-0.0144016 -0.107331,-0.0604606 -0.131531,-0.12339 -0.0200354,-0.0520787 -0.0249488,-0.117169 -0.0100472,-0.182906l0 -0.000326772c0.0135945,-0.0585157 0.0414291,-0.110398 0.0765315,-0.148zm0.10228 0.29252l0.000149606 4.72441e-005 0.00023622 0 -0.000385827 -4.72441e-005zm0.000181102 5.51181e-005l0.00019685 5.51181e-005 3.93701e-006 -3.54331e-005 -0.000200787 -1.9685e-005zm0.00019685 5.51181e-005l0.000114173 2.75591e-005 0.000543307 0 -0.000653543 -6.29921e-005 -3.93701e-006 3.54331e-005zm-0.000271654 -6.29921e-005c-0.000287402,-3.14961e-005 -0.00042126,-4.33071e-005 -4.33071e-005,0l4.33071e-005 0z"/>
   <path id="_420794944" class="fil0" d="M2.11974 1.43118c-0.00155512,-0.0264016 -0.00940157,-0.0490354 -0.020937,-0.0644488 -0.00524409,-0.00700787 -0.0105315,-0.0118543 -0.0151142,-0.0135472 -0.00266929,0.00217323 -0.00568898,0.00583858 -0.00892913,0.010878l-0.000259843 0.000259843c-0.00522441,0.00801969 -0.00927165,0.0180984 -0.0119606,0.0296378 -0.00294094,0.012622 -0.00405512,0.0264803 -0.00315748,0.0409094 0.00156299,0.026437 0.00944094,0.0495984 0.0208898,0.0656457 0.00592126,0.00830315 0.0110236,0.0134449 0.0138858,0.0134449l4.72441e-005 0c1.5748e-005,-0.000110236 9.44882e-005,-0.00026378 0.000389764,-0.000464567 0.00325591,-0.00222835 0.00656693,-0.00587795 0.00973622,-0.0108465l0 -0.000259843c0.00546457,-0.0085 0.00959843,-0.018689 0.0122283,-0.0300118l0 -0.000259843c0.00294488,-0.0126732 0.00406693,-0.0265236 0.0031811,-0.040937zm0.085315 -0.144134c0.0265669,0.0355 0.0443858,0.0835787 0.0474961,0.136323 0.00168504,0.0274094 -0.000531496,0.054126 -0.00630709,0.0789528l-5.90551e-005 -1.1811e-005c-0.00614567,0.0263189 -0.0162323,0.0507283 -0.029878,0.0719528l-0.00011811 -7.48031e-005c-0.0131929,0.0206299 -0.0290433,0.0371929 -0.0465945,0.0492047 -0.0203386,0.0139055 -0.0429488,0.0219764 -0.0666772,0.0236417l-0.0044252 0.00026378 -0.00433465 0c-0.0483307,0 -0.0915118,-0.0266457 -0.122217,-0.0696969 -0.0251732,-0.0352874 -0.0422992,-0.0830669 -0.0453701,-0.134921 -0.00170472,-0.0274134 0.000507874,-0.0541417 0.00628346,-0.0789252 0.00605118,-0.0259606 0.0161811,-0.0502402 0.0299921,-0.0715236l-6.29921e-005 -4.33071e-005c0.0129173,-0.0200709 0.0288504,-0.0366929 0.0468071,-0.0490709l-8.26772e-005 -0.000122047c0.0206339,-0.0141811 0.0434646,-0.0223307 0.0673976,-0.0235512l0.00338583 -0.00026378c0.0492992,0 0.0932441,0.025752 0.124764,0.0678661z"/>
   <path id="_420794968" class="fil0" d="M1.72104 1.52826c-0.00519291,-0.0199094 -0.0144685,-0.0367795 -0.0255827,-0.0482677l-0.000322835 -0.000322835 -0.0023189 -0.00237008c-0.00219685,0.00690945 -0.00346457,0.0146378 -0.00374016,0.0228898 -0.000370079,0.0110315 0.00100787,0.0229488 0.00424016,0.0352087l0 0.000322835 0.000177165 0.000685039c0.00537008,0.0206339 0.0159213,0.0381811 0.0282874,0.0494724 0.0015315,-0.0047874 0.00258268,-0.0102992 0.00313386,-0.0163425 0.00115354,-0.0126063 -0.000110236,-0.0266457 -0.00387402,-0.0409528l0 -0.000322835zm0.093874 -0.163819c0.0299921,0.0311181 0.0542638,0.0738031 0.0668504,0.121846l7.87402e-005 -1.9685e-005c0.00861024,0.0327047 0.0113504,0.0664173 0.00843307,0.0982441 -0.00309449,0.0338307 -0.0127087,0.0659252 -0.0286102,0.0932953l0.000204724 0.00011811c-0.00844094,0.014748 -0.0211969,0.0318898 -0.0395866,0.0470394 -0.0153622,0.0126535 -0.0341496,0.0232953 -0.0568583,0.0292638l1.9685e-005 7.87402e-005 -0.000208661 5.51181e-005 -0.000649606 0c-0.0537835,0.0137835 -0.108839,-0.00481496 -0.152961,-0.044311 -0.0355197,-0.0317953 -0.0651181,-0.0788622 -0.078937,-0.131976l-9.84252e-005 -0.00038189 -7.87402e-005 1.9685e-005c-0.00729134,-0.0276575 -0.0103622,-0.0556929 -0.00945276,-0.0827283 0.000972441,-0.028811 0.00646063,-0.0564764 0.0161969,-0.0815197l0.000322835 -0.000649606c0.0100669,-0.025252 0.0240236,-0.0468425 0.0410118,-0.0638228 0.0199646,-0.0199528 0.0438346,-0.0336457 0.070626,-0.0399764l7.87402e-006 3.93701e-005c0.00612205,-0.00172441 0.0116339,-0.00279921 0.0166299,-0.00341339 0.00665354,-0.000818898 0.0125984,-0.00108661 0.0179567,-0.00108661 0.0474803,0 0.0929331,0.0224724 0.12911,0.059878l-7.87402e-006 7.87402e-006z"/>
   <path id="_420794440" class="fil0" d="M1.39202 1.75512c-0.00436614,-0.0124528 -0.0128622,-0.0236693 -0.0232165,-0.0318583 -0.00838189,-0.00662598 -0.0171417,-0.0106614 -0.0244449,-0.0106614l0 -3.93701e-006c0.000185039,-0.000102362 0.00878346,-0.00259449 0.00425591,-0.00131102l-0.00425591 0.00101575 0 0.000295276 0 -0.000295276 -0.000728346 0.000173228c-0.000759843,0.000622047 -0.00158661,0.00172047 -0.0024252,0.00324409l-0.000110236 -6.29921e-005c-0.00153543,0.00311811 -0.00238189,0.00661811 -0.00253543,0.0103425 -0.000232283,0.00551575 0.000870079,0.0117323 0.00329921,0.0184094l0.000519685 0.00130315c0.00402756,0.0118189 0.0124409,0.0227677 0.0228701,0.0309685 0.00865748,0.00680709 0.0176575,0.0109961 0.0250591,0.0110315l0.000251969 -0.000173228c0.000637795,-0.000484252 0.00135433,-0.00144094 0.00211417,-0.00285433l0.000519685 -0.000779528c0.00143307,-0.00257874 0.00223228,-0.00580709 0.00238583,-0.00946063 0.000232283,-0.00556299 -0.000866142,-0.0118504 -0.00329921,-0.0185394l-0.000259843 -0.000783465zm0.0590748 -0.136024c0.0290984,0.0230157 0.053252,0.0551614 0.0661693,0.0915l1.5748e-005 -7.87402e-006c0.00835827,0.0229764 0.0120669,0.0464213 0.0111102,0.0690591 -0.00101969,0.0241181 -0.00722047,0.0472205 -0.0185984,0.0680197l7.08661e-005 3.93701e-005c-0.00993307,0.0184134 -0.0230157,0.0336969 -0.0385709,0.045563 -0.0159409,0.0121614 -0.0342874,0.0205079 -0.0543543,0.0247677l3.54331e-005 0.00015748c-0.00340551,0.000748031 -0.00800394,0.00141732 -0.0133622,0.00196457l3.93701e-006 2.75591e-005c-0.00554724,0.00057874 -0.0100039,0.000862205 -0.0132165,0.000862205 -0.0380157,0 -0.0761614,-0.0150906 -0.107441,-0.039685 -0.0296063,-0.0232795 -0.0540276,-0.0560276 -0.0666181,-0.0929449l4.33071e-005 -1.5748e-005c-0.00802756,-0.0225394 -0.0115669,-0.0453661 -0.0106339,-0.0676102 0.00101181,-0.0240866 0.00718898,-0.0472008 0.0185276,-0.0683583l0.000259843 -0.000779528c0.00991339,-0.0179646 0.0230157,-0.0332047 0.0384803,-0.0450079 0.0155906,-0.0118976 0.0333543,-0.0202008 0.052563,-0.0242717 0.0120906,-0.0031063 0.0203031,-0.00311417 0.0287795,-0.00311417 0.0375512,0 0.0754173,0.0150748 0.106736,0.0398346zm-0.0606969 0.168787l0 7.87402e-006c0.00038189,-3.93701e-005 0.000283465,-3.14961e-005 0,-7.87402e-006zm-0.000417323 -7.87402e-006c-0.000224409,3.93701e-005 -0.000362205,6.29921e-005 -0.000106299,3.93701e-005l0.000106299 -3.93701e-005zm0.000417323 1.5748e-005l0 -7.87402e-006 -0.000149606 1.1811e-005 8.26772e-005 0 6.69291e-005 -3.93701e-006zm-0.000551181 3.54331e-005l-0.00069685 5.51181e-005 0.000480315 0 0.000216535 -5.51181e-005z"/>
  </g>
  <g id="_420794704">
   <rect id="_420794344" class="fil1" width="6.82666" height="6.82666"/>
   <rect id="_420794176" class="fil1" x="0.853331" y="0.853331" width="5.12" height="5.12"/>
  </g>
 </g>
</svg>
