<?xml version="1.0" encoding="UTF-8"?>
<!DOCTYPE svg PUBLIC "-//W3C//DTD SVG 1.1//EN" "http://www.w3.org/Graphics/SVG/1.1/DTD/svg11.dtd">
<!-- Creator: CorelDRAW -->
<svg xmlns="http://www.w3.org/2000/svg" xml:space="preserve" width="6.82666in" height="6.82666in" style="shape-rendering:geometricPrecision; text-rendering:geometricPrecision; image-rendering:optimizeQuality; fill-rule:evenodd; clip-rule:evenodd"
viewBox="0 0 6.82666 6.82666"
 xmlns:xlink="http://www.w3.org/1999/xlink">
 <defs>
  <style type="text/css">
   <![CDATA[
    .fil1 {fill:none}
    .fil0 {fill:#ffffff;fill-rule:nonzero}
   ]]>
  </style>
 </defs>
 <g id="Layer_x0020_1">
  <metadata id="CorelCorpID_0Corel-Layer"/>
  <g id="_420773032">
   <path id="_420773680" class="fil0" d="M4.35022 5.2499c-0.00823228,0.200224 -0.0910157,0.382224 -0.222067,0.513276 -0.12976,0.12976 -0.306441,0.210161 -0.505114,0.210161l-0.500646 0c-0.198425,0 -0.374299,-0.0801811 -0.503736,-0.209618 -0.131,-0.131004 -0.213953,-0.312961 -0.223441,-0.512984 -0.0092126,-0.194193 -0.0317598,-0.403992 -0.0544409,-0.615075 -0.0954528,-0.888295 -0.19324,-1.79828 0.623909,-2.01125l0.0770827 0.00916535c0.0538346,0.0289921 0.111902,0.0516535 0.173004,0.066878 0.0591929,0.014752 0.122031,0.0226181 0.187528,0.0226181 0.0564528,0 0.110835,-0.00584646 0.16252,-0.0168976 0.0533937,-0.0114173 0.104646,-0.0284409 0.153008,-0.0503583l0.0783346 -0.00333465c0.764713,0.265035 0.679118,1.17165 0.597906,2.03183 -0.0183504,0.194386 -0.0364724,0.386276 -0.0438465,0.565591zm-0.372902 0.362441c0.0946575,-0.0946575 0.154453,-0.22613 0.160398,-0.370772 0.00758268,-0.184327 0.0260118,-0.379524 0.0446811,-0.57726 0.0720315,-0.762984 0.147768,-1.56619 -0.418185,-1.79685 -0.0495906,0.0197244 -0.101488,0.0355472 -0.155228,0.0470394 -0.067,0.0143268 -0.136205,0.0219055 -0.206685,0.0219055 -0.0817874,0 -0.161713,-0.010185 -0.238362,-0.0292874 -0.0642717,-0.0160157 -0.125709,-0.038252 -0.183496,-0.0659488 -0.598047,0.18865 -0.512067,0.98963 -0.427996,1.77198 0.0228976,0.213098 0.0456575,0.424902 0.0552756,0.627579 0.0068937,0.145335 0.0669528,0.277327 0.161772,0.37215 0.0908386,0.0908386 0.214071,0.147114 0.352902,0.147114l0.500646 0c0.139173,0 0.26311,-0.0564882 0.35428,-0.147657z"/>
   <path id="_420773728" class="fil0" d="M2.47735 3.71628c0.112642,0.172941 0.240213,0.287646 0.370201,0.370461 0.13239,0.0843465 0.271067,0.137862 0.399402,0.185697 0.132047,0.0492244 0.270264,0.081311 0.408016,0.113287 0.231039,0.053626 0.46089,0.106988 0.688685,0.243484l-0.109165 0.182504c-0.198685,-0.119055 -0.412299,-0.168642 -0.627024,-0.218484 -0.143437,-0.0332953 -0.28735,-0.0667047 -0.434677,-0.121626 -0.138567,-0.0516496 -0.288709,-0.109689 -0.439402,-0.205697 -0.153094,-0.0975354 -0.302933,-0.232004 -0.434366,-0.433791l0.178331 -0.115835z"/>
   <path id="_420773560" class="fil0" d="M4.42748 3.7389c-0.349181,0.536071 -0.674035,0.599689 -1.0392,0.671201 -0.0590472,0.011563 -0.119236,0.0233504 -0.178831,0.0372244l-0.0483307 -0.207504c0.0648228,-0.0150906 0.126161,-0.0271063 0.186327,-0.0388858 0.318638,-0.0623976 0.602102,-0.117913 0.901705,-0.57787l0.178331 0.115835z"/>
   <path id="_420773608" class="fil0" d="M3.4023 1.20518c0.25002,0 0.476799,0.0949961 0.641307,0.248579 0.166201,0.155165 0.269004,0.369772 0.269004,0.607035 0,0.237264 -0.102803,0.45187 -0.269004,0.607031 -0.164512,0.153587 -0.39128,0.248583 -0.641307,0.248583 -0.250028,0 -0.476795,-0.0949961 -0.641307,-0.248583 -0.166201,-0.155161 -0.269004,-0.369768 -0.269004,-0.607031 0,-0.237264 0.102803,-0.45187 0.269004,-0.607035 0.164508,-0.153583 0.391287,-0.248579 0.641307,-0.248579zm0.523496 0.375193c-0.133583,-0.124713 -0.318646,-0.201854 -0.523496,-0.201854 -0.20485,0 -0.389913,0.0771417 -0.523496,0.201854 -0.131894,0.123134 -0.213476,0.293008 -0.213476,0.480421 0,0.187413 0.0815827,0.357287 0.213476,0.480417 0.133587,0.124717 0.318646,0.201858 0.523496,0.201858 0.20485,0 0.389909,-0.0771417 0.523496,-0.201858 0.131894,-0.12313 0.213476,-0.293004 0.213476,-0.480417 0,-0.187413 -0.0815827,-0.357287 -0.213476,-0.480421z"/>
   <path id="_420773776" class="fil0" d="M4.28938 1.81729c0.0701457,0 0.133909,0.0267874 0.18028,0.0700787 0.0474173,0.0442677 0.076748,0.105575 0.076748,0.173425 0,0.0678465 -0.0293307,0.129157 -0.076748,0.173425 -0.0463701,0.0432913 -0.110134,0.0700787 -0.18028,0.0700787 -0.0176929,0 -0.0356811,-0.00192126 -0.0536732,-0.00555118 -0.0182677,-0.00368504 -0.0355236,-0.00905118 -0.0515591,-0.015874l-0.0416614 -0.0177244 0.0108307 -0.0439409c0.00629921,-0.0255748 0.0111575,-0.0520591 0.0144606,-0.0793622 0.00319291,-0.026374 0.00483465,-0.0534173 0.00483465,-0.0810512 0,-0.0276378 -0.00164567,-0.0546811 -0.00483465,-0.0810551 -0.00330315,-0.0273031 -0.00816142,-0.0537874 -0.0144606,-0.0793583l-0.0108307 -0.043937 0.0416614 -0.0177283c0.0160354,-0.00682283 0.0332953,-0.012189 0.0515591,-0.015874 0.0179921,-0.00362992 0.0359803,-0.00555118 0.0536732,-0.00555118zm0.107783 0.147992c-0.0273386,-0.0255236 -0.065437,-0.0413228 -0.107783,-0.0413228 -0.0077874,0 -0.0151417,0.000444882 -0.0220512,0.00130315 0.00248819,0.0139528 0.00458661,0.0279528 0.00628346,0.0419803 0.00374016,0.0309252 0.00566929,0.0621496 0.00566929,0.0935512 0,0.0313976 -0.00192913,0.062626 -0.00566929,0.0935472 -0.00170079,0.0140276 -0.00380315,0.0280276 -0.0062874,0.0419843 0.00690945,0.000858268 0.0142638,0.00130315 0.0220551,0.00130315 0.0423465,0 0.0804449,-0.0157992 0.107783,-0.0413228 0.0263031,-0.0245551 0.0425748,-0.0583386 0.0425748,-0.0955118 0,-0.0371732 -0.0162717,-0.0709567 -0.0425748,-0.0955118z"/>
   <path id="_420773512" class="fil0" d="M2.53728 1.81729c0.0136339,0 0.0271772,0.00104724 0.0405197,0.00305512 0.0130315,0.00195669 0.0262008,0.00502756 0.0393661,0.00911024l0.0484409 0.0150236 -0.0126102 0.048937c-0.0069685,0.0270472 -0.012311,0.0547717 -0.0158976,0.0830669 -0.00336614,0.0265748 -0.0051063,0.054689 -0.0051063,0.084311 0,0.029622 0.00174016,0.0577362 0.0051063,0.084311 0.00358661,0.0282953 0.00892913,0.0560197 0.0158976,0.0830669l0.0126102 0.0489409 -0.0484409 0.0150197c-0.0131654,0.00408268 -0.0263346,0.00715354 -0.0393661,0.00911024 -0.0133425,0.00200787 -0.0268858,0.00305512 -0.0405197,0.00305512 -0.0701457,0 -0.133913,-0.0267835 -0.180283,-0.0700787 -0.0474173,-0.0442677 -0.076748,-0.105571 -0.076748,-0.173425 0,-0.0678543 0.0293307,-0.129157 0.076748,-0.173425 0.0463701,-0.0432953 0.110138,-0.0700787 0.180283,-0.0700787zm0.000405512 0.106669l-0.000405512 0c-0.0423504,0 -0.0804409,0.0157913 -0.107787,0.0413228 -0.0263031,0.0245551 -0.0425748,0.0583346 -0.0425748,0.0955118 0,0.0371772 0.0162717,0.0709567 0.0425748,0.0955118 0.0273465,0.0255315 0.065437,0.0413228 0.107787,0.0413228l0.000405512 0c-0.00233071,-0.0129764 -0.00433465,-0.0260433 -0.00600394,-0.0391929 -0.00418898,-0.0330866 -0.00635827,-0.0657047 -0.00635827,-0.0976417 0,-0.031937 0.00216929,-0.0645551 0.00635827,-0.0976417 0.00166929,-0.0131496 0.00367323,-0.0262165 0.00600394,-0.0391929z"/>
   <path id="_420772480" class="fil0" d="M3.77592 2.42686c-0.0206614,0.0502402 -0.0508465,0.0953268 -0.0883661,0.133039 -0.037626,0.0378189 -0.0825787,0.0682835 -0.132642,0.0891693l-7.87402e-006 3.93701e-006c-0.104209,0.0434764 -0.21628,0.040563 -0.313217,0.000700787 -0.0969528,-0.0398661 -0.178681,-0.116689 -0.222209,-0.221l0.0490472 -0.0203701 0.0476142 -0.0238031 3.93701e-006 7.87402e-006 0.00166535 0.00333071c0.0322165,0.0772087 0.0926457,0.134043 0.164295,0.163504 0.0716575,0.0294646 0.154646,0.0315551 0.231965,-0.000700787l7.87402e-006 -3.93701e-006c0.0371024,-0.0154803 0.0703346,-0.0379724 0.0980591,-0.0658386 0.0278268,-0.0279724 0.050189,-0.0613425 0.0654528,-0.0984567l0.0983307 0.0404173z"/>
   <path id="_420773176" class="fil0" d="M3.47367 1.52306c-0.122256,0.0107598 -0.238697,-0.0315079 -0.330035,-0.0971496 -0.105854,-0.0760748 -0.179154,-0.185756 -0.190059,-0.282591l0.105835 -0.0116693c0.0076811,0.0682244 0.0641024,0.148933 0.146303,0.208008 0.0723268,0.0519764 0.163776,0.0855118 0.258791,0.0771496l0.00916535 0.106252z"/>
   <path id="_420772792" class="fil0" d="M3.38329 1.33709c-0.0830709,-0.0276299 -0.134882,-0.0828898 -0.167752,-0.148709 -0.0304449,-0.0609567 -0.0436063,-0.130094 -0.050689,-0.192984l0.105835 -0.0116693c0.00592126,0.0525984 0.0165394,0.109642 0.0402717,0.157157 0.0213071,0.0426614 0.0540945,0.0782165 0.105665,0.0953701l-0.0333307 0.100835z"/>
   <path id="_420772720" class="fil0" d="M3.60635 1.37019c-0.142886,-0.0475276 -0.149539,-0.203122 -0.155012,-0.331531 -0.0011063,-0.0260079 -0.00216142,-0.0506654 -0.00465748,-0.0728228l0.105835 -0.0116693c0.00264961,0.0235433 0.00383465,0.0511772 0.0050748,0.0803268 0.00405906,0.0951969 0.00898425,0.210543 0.0820906,0.234862l-0.0333307 0.100835z"/>
   <path id="_420772816" class="fil0" d="M3.18749 1.94949c-0.000295276,-0.0168425 -0.0051378,-0.0330787 -0.0136339,-0.0472205 -0.00840551,-0.0139882 -0.0204843,-0.0258386 -0.0353465,-0.0340709 -0.0227717,-0.0126181 -0.0486929,-0.0147598 -0.0721811,-0.00802756 -0.0233504,0.00669685 -0.0441417,0.0222795 -0.056811,0.0451417 -0.00394882,0.00712992 -0.00695669,0.0148189 -0.00895669,0.0228425 -0.00206299,0.0082874 -0.00305118,0.0166575 -0.00290945,0.0248622l-0.106252 0.00166929c-0.000311024,-0.0177717 0.00166929,-0.0352402 0.00583071,-0.0519488 0.00423228,-0.0169803 0.0107323,-0.0334961 0.019374,-0.0490945 0.0269606,-0.0486575 0.0710669,-0.0817717 0.120559,-0.0959685 0.0493543,-0.0141496 0.104268,-0.00940551 0.153016,0.0176102 0.0313976,0.0173976 0.057,0.0425748 0.0749291,0.0724016 0.0178346,0.0296811 0.0280039,0.0640945 0.0286339,0.100134l-0.106252 0.00166929z"/>
   <path id="_420772912" class="fil0" d="M3.80698 1.94949c-0.000295276,-0.0168465 -0.0051378,-0.0330827 -0.0136299,-0.0472205 -0.00840551,-0.0139843 -0.0204882,-0.0258386 -0.0353504,-0.0340709 -0.0227717,-0.0126181 -0.0486969,-0.0147598 -0.0721811,-0.00802756 -0.0233543,0.00669685 -0.0441417,0.0222795 -0.056811,0.0451417 -0.00394882,0.00712992 -0.00695669,0.0148189 -0.00895669,0.0228425 -0.00206299,0.0082874 -0.00305118,0.0166575 -0.00290945,0.0248622l-0.106252 0.00166929c-0.000311024,-0.0177717 0.00166929,-0.0352402 0.00583071,-0.0519488 0.00423228,-0.0169803 0.0107323,-0.0334961 0.019374,-0.0490945 0.0269685,-0.0486575 0.0710669,-0.0817717 0.120559,-0.0959685 0.0493543,-0.0141496 0.104268,-0.00940551 0.153016,0.0176102 0.0314016,0.0173976 0.0570079,0.0425787 0.0749331,0.0724016 0.0178307,0.0296811 0.028,0.0640984 0.0286299,0.100134l-0.106252 0.00166929z"/>
  </g>
  <g id="_420771784">
   <rect id="_420772984" class="fil1" width="6.82666" height="6.82666"/>
   <rect id="_420772576" class="fil1" x="0.853331" y="0.853331" width="5.12" height="5.12"/>
  </g>
 </g>
</svg>
