<svg xmlns="http://www.w3.org/2000/svg" width="655.36" height="655.36" fill-rule="evenodd" clip-rule="evenodd" image-rendering="optimizeQuality" shape-rendering="geometricPrecision" text-rendering="geometricPrecision" viewBox="0 0 6.83 6.83">
  <defs>
    <style>
      .icon--bkgd{fill:none}
      .icon--fill{fill:#212121}
    </style>
  </defs>
  <g id="Layer_x0020_1">
    <path d="M3.41.96a2.48 2.48 0 0 1 .26.01v.11-.1a.1.1 0 0 1 0 .2 1.77 1.77 0 1 0 1.97 1.97l.1.02-.1-.02a.1.1 0 0 1 .21.01 2.49 2.49 0 0 1-.7 1.99A2.45 2.45 0 0 1 .96 3.4 2.45 2.45 0 0 1 3.41.96zm-1.01.67a2 2 0 0 1 .46-.39A2.24 2.24 0 1 0 5.6 3.96a2 2 0 0 1-3.11.39 1.98 1.98 0 0 1-.08-2.72z" class="icon--fill"/>
    <path d="M3.92 2.55l.16.38.4.03.27.02-.2.17-.32.27.1.4.06.25-.22-.14-.35-.22-.35.22-.22.14.06-.25.1-.4-.32-.27-.2-.17.26-.02.42-.03.15-.38.1-.24.1.24zm-.01.52l-.09-.2-.08.2-.03.06h-.06l-.22.02.16.14.05.04-.01.07-.05.21.18-.11.06-.04.05.04.2.11-.06-.2L4 3.33l.04-.04.17-.15L4 3.14h-.07l-.02-.07zM5.1 1.03l.13.31.34.03.26.02-.2.16-.26.23.08.33.06.25-.22-.14L5 2.04l-.29.18-.22.14.06-.25.08-.34-.26-.21-.2-.17.26-.02.35-.03.12-.31.1-.24.1.24zm-.04.46L5 1.35l-.05.13-.03.06h-.06l-.15.02.11.1.05.04-.02.06-.03.15.12-.08.06-.04.06.04.12.08-.03-.14-.02-.07.05-.04.12-.1h-.15l-.06-.01-.03-.06z" class="icon--fill"/>
    <path d="M3.16 1.85l.08.17.18.01-.14.12.04.18-.16-.1-.15.1.04-.18-.14-.12.19-.01zM5.55 5.28l.07.17.18.01-.14.12.04.18-.15-.1-.16.1.04-.18-.14-.12.19-.01zM1.35 5.28l.07.17.18.01-.14.12.04.18-.15-.1-.16.1.04-.18-.14-.12.19-.01z" class="icon--fill"/>
    <g id="_420795568">
      <path id="_420795784" d="M0 0h6.83v6.83H0z" class="icon--bkgd"/>
      <path id="_420795592" d="M.85.85h5.12v5.12H.85z" class="icon--bkgd"/>
    </g>
  </g>
</svg>