<svg xmlns="http://www.w3.org/2000/svg" width="655.36" height="655.36" fill-rule="evenodd" clip-rule="evenodd" image-rendering="optimizeQuality" shape-rendering="geometricPrecision" text-rendering="geometricPrecision" viewBox="0 0 6.83 6.83">
  <defs>
    <style>      
      .icon--bkgd{fill:none}
      .icon--fill{fill:#212121}
    </style>
  </defs>
  <g id="Layer_x0020_1">
    <path d="M3.68 1.96h.02l.1.01V2l.33.07h.02c.36.15.67.39.88.7a1.76 1.76 0 0 1-.25 2.33c-.35.34-.85.54-1.4.54-.54 0-1.03-.2-1.39-.54a1.76 1.76 0 0 1-.25-2.34c.22-.3.53-.54.89-.68h.01L2.98 2v-.03l.1-.01h.04l.05-.01.03.03h.4l.03-.03h.05zm-.01.23H3.1l-.41.09c-.32.13-.6.34-.78.6a1.55 1.55 0 0 0 .22 2.07c.32.3.76.48 1.25.48s.93-.18 1.25-.48a1.55 1.55 0 0 0 .22-2.06 1.75 1.75 0 0 0-.78-.61l-.41-.09z" class="icon--fill"/>
    <path d="M5.4 3.25c.16 0 .3.06.4.16.1.1.17.23.17.38s-.06.29-.17.38a.58.58 0 0 1-.63.11l-.08-.03.02-.1a1.53 1.53 0 0 0 0-.73l-.02-.09.08-.03a.59.59 0 0 1 .23-.05zm.26.31a.37.37 0 0 0-.32-.09 1.72 1.72 0 0 1 0 .64.37.37 0 0 0 .32-.1c.06-.05.1-.13.1-.22a.31.31 0 0 0-.1-.23zM1.42 3.25a.6.6 0 0 1 .18.03l.1.03-.03.1a1.54 1.54 0 0 0 0 .76l.03.1-.1.03a.6.6 0 0 1-.58-.13.52.52 0 0 1-.17-.38c0-.15.07-.29.17-.38.1-.1.25-.16.4-.16zm.02.22h-.02c-.1 0-.19.03-.25.1a.31.31 0 0 0-.1.22c0 .09.04.17.1.23a.37.37 0 0 0 .27.1 1.74 1.74 0 0 1 0-.65zM4.22 4.62a.92.92 0 0 1-1.69 0l.2-.08a.7.7 0 0 0 1.3 0l.2.08zM2.91 3.54a.23.23 0 0 0-.46 0h-.2a.44.44 0 0 1 .31-.42.44.44 0 0 1 .57.41H2.9zM4.32 3.54a.23.23 0 0 0-.12-.2.23.23 0 0 0-.3.09.23.23 0 0 0-.04.12h-.21a.44.44 0 0 1 .05-.22.44.44 0 0 1 .6-.18.44.44 0 0 1 .23.38h-.2zM3.19 1.2h.42a.18.18 0 0 1 .18.18v.63a.18.18 0 0 1-.18.18h-.42A.18.18 0 0 1 3 2.01v-.63a.18.18 0 0 1 .19-.18zm.4.21h-.37v.57h.36v-.57z" class="icon--fill"/>
    <path d="M4.55 1.44l-.76.16V2l.76.16v-.72zm-.88-.03l.96-.2.13-.04V2.43l-.13-.03-.96-.2-.09-.03V1.43l.09-.02zM2.14 1.2l.97.2.09.03V2.17l-.09.02-.97.2-.12.04V1.17l.12.03zm.84.4l-.75-.16v.72L2.98 2v-.4z" class="icon--fill"/>
    <g id="_321133672">
      <path id="_321134584" d="M0 0h6.83v6.83H0z" class="icon--bkgd"/>
      <path id="_321133840" d="M.85.85h5.12v5.12H.85z" class="icon--bkgd"/>
    </g>
  </g>
</svg>