<svg clip-rule="evenodd" fill-rule="evenodd" height="655.36" image-rendering="optimizeQuality" shape-rendering="geometricPrecision" text-rendering="geometricPrecision" viewBox="0 0 6.83 6.83" width="655.36" xmlns="http://www.w3.org/2000/svg">
  <style>
    .icon--bkgd{fill:none}
    .icon--fill{fill:#212121}
  </style>

  <path d="m3.39 1.94c.54 0 1.04.2 1.4.54.35.33.58.8.58 1.31s-.23.98-.59 1.31c-.35.34-.85.54-1.4.54-.54 0-1.03-.2-1.39-.54a1.8 1.8 0 0 1 -.58-1.31c0-.51.22-.98.58-1.31.36-.34.85-.54 1.4-.54zm1.25.7c-.32-.3-.76-.49-1.25-.49-.5 0-.93.18-1.25.48s-.52.7-.52 1.16c0 .45.2.86.52 1.16s.76.48 1.25.48.93-.18 1.25-.48.51-.7.51-1.16c0-.45-.2-.86-.51-1.16z" class="icon--fill"/>
  <path d="m5.4 3.25c.16 0 .3.06.4.16s.17.23.17.38-.06.29-.17.38a.58.58 0 0 1 -.63.11l-.08-.03.02-.1a1.53 1.53 0 0 0 0-.73l-.02-.09.08-.03a.59.59 0 0 1 .23-.05zm.26.31a.37.37 0 0 0 -.32-.09 1.72 1.72 0 0 1 0 .64.37.37 0 0 0 .32-.1c.06-.05.1-.13.1-.22a.31.31 0 0 0 -.1-.23zm-4.24-.31a.6.6 0 0 1 .18.03l.1.03-.03.1a1.54 1.54 0 0 0 0 .76l.03.1-.1.03a.6.6 0 0 1 -.58-.13.52.52 0 0 1 -.17-.38c0-.15.07-.29.17-.38.1-.1.25-.16.4-.16zm.02.22h-.02c-.1 0-.19.03-.25.1a.31.31 0 0 0 -.1.22c0 .09.04.17.1.23a.37.37 0 0 0 .27.1 1.74 1.74 0 0 1 0-.65zm2.59 1.53a.7.7 0 0 0 -1.3 0l-.2-.09a.91.91 0 0 1 1.7 0l-.2.08zm-.48-2.45c-.27.03-.54-.07-.74-.21a.99.99 0 0 1 -.43-.64l.21-.02c.02.16.15.35.34.48.17.12.38.2.6.18zm-.2-.42a.63.63 0 0 1 -.37-.33 1.3 1.3 0 0 1 -.12-.43l.21-.03c.02.13.04.26.1.37.05.1.12.18.25.22zm.51.07c-.32-.1-.33-.45-.35-.73v-.17l.2-.02.02.18c0 .22.02.49.2.55l-.07.2zm-.12 1.24.32-.32.08-.07.08.07.32.32-.16.16-.24-.25-.24.25zm-1.58 0 .32-.32.08-.07.08.07.32.32-.16.16-.24-.25-.24.25zm.51.4v.32h-.22v-.32z" class="icon--fill"/>
  <g class="icon--bkgd">
    <path d="m0 0h6.83v6.83h-6.83z"/>
    <path d="m.85.85h5.12v5.12h-5.12z"/>
  </g>
</svg>