<svg xmlns="http://www.w3.org/2000/svg" width="655.36" height="655.36" fill-rule="evenodd" clip-rule="evenodd" image-rendering="optimizeQuality" shape-rendering="geometricPrecision" text-rendering="geometricPrecision" viewBox="0 0 6.83 6.83">
  <defs>
    <style>
      .icon--bkgd{fill:none}
      .icon--fill{fill:#212121}
    </style>
  </defs>
  <g id="Layer_x0020_1">
    <g id="_420795400">
      <path id="_420795736" d="M4.7 5.86a.64.64 0 0 1-.07-.01H4.6l-.06-.04c-.39-.15-.34-.39-.27-.7a3.21 3.21 0 0 0 .04-.17c.03-.35-.16-.57-.33-.78-.08-.09-.16-.18-.22-.28a.93.93 0 0 1-.13-.37.54.54 0 0 1 0-.2.43.43 0 0 1 .1-.19c.1-.11.25-.17.4-.2a1.91 1.91 0 0 1 .62-.04c.08 0 .14.02.2.03.25.06.44.24.56.52.12.26.16.62.15 1.07-.01.26-.12.66-.32.95-.16.23-.37.4-.63.4zm-.02-.22h.03c.18 0 .33-.13.45-.3.18-.27.28-.62.29-.84a2.4 2.4 0 0 0-.13-.99c-.1-.22-.23-.35-.42-.4a1.57 1.57 0 0 0-.37-.02c-.1 0-.23 0-.35.03a.54.54 0 0 0-.3.14.22.22 0 0 0-.04.1.33.33 0 0 0 0 .12c.01.11.05.2.1.29l.2.26c.2.24.42.49.38.93a1.61 1.61 0 0 1-.04.2c-.05.21-.08.37.14.46l.06.02z" class="icon--fill"/>
      <path id="_420794728" d="M3.62 2.08c.08 0 .17.04.24.1.06.06.12.14.15.24.02.05.03.11.03.17 0 .05 0 .1-.02.16a.36.36 0 0 1-.07.13.28.28 0 0 1-.11.08.29.29 0 0 1-.1.02.36.36 0 0 1-.23-.1.57.57 0 0 1-.15-.23.55.55 0 0 1-.02-.33c.03-.1.1-.19.19-.22a.27.27 0 0 1 .1-.02zm.13.23a.2.2 0 0 0-.13-.06.11.11 0 0 0-.03 0c-.05.02-.08.06-.1.12a.38.38 0 0 0 .02.22.4.4 0 0 0 .11.17.2.2 0 0 0 .13.05.1.1 0 0 0 .03 0c.02 0 .03-.02.05-.04a.2.2 0 0 0 .04-.07.32.32 0 0 0 0-.1.42.42 0 0 0-.02-.13.4.4 0 0 0-.1-.16z" class="icon--fill"/>
      <path id="_420795304" d="M4.28 2.23c.06 0 .11.02.15.07.04.04.07.09.08.15.01.06 0 .13-.01.18a.19.19 0 0 1-.13.12h-.02-.02a.2.2 0 0 1-.15-.06.32.32 0 0 1-.07-.15.32.32 0 0 1 0-.18c.03-.07.08-.11.14-.13a.28.28 0 0 1 .03 0zm.03.18l-.03-.02v.02c-.02.03-.02.06-.01.1l.03.06.03.02.01-.02v-.09a.16.16 0 0 0-.03-.07zm.02.18zm0 0zm0 0zm0 0z" class="icon--fill"/>
      <path id="_420794920" d="M4.57 2.51c0-.05.03-.1.05-.13a.16.16 0 0 1 .13-.07c.02 0 .05 0 .07.02l.04.05c.02.02.03.05.03.07a.27.27 0 0 1-.04.22.15.15 0 0 1-.12.07.13.13 0 0 1-.07-.03.17.17 0 0 1-.05-.05.23.23 0 0 1-.03-.07v-.08zm.16-.05a.14.14 0 0 0-.02.1l.01.03a.04.04 0 0 0 .01.01l.02-.01a.13.13 0 0 0 .02-.07v-.04a.1.1 0 0 0-.02-.03h-.02z" class="icon--fill"/>
      <path id="_420794848" d="M4.94 2.58c.02-.05.04-.1.07-.13a.18.18 0 0 1 .15-.05h.02l.07.04.04.06.01.08v.09a.27.27 0 0 1-.08.13.17.17 0 0 1-.16.04.15.15 0 0 1-.06-.03.17.17 0 0 1-.04-.04.23.23 0 0 1-.02-.1v-.1zm.2-.01a.11.11 0 0 0-.03.05v.06a.1.1 0 0 0 .02-.05v-.04-.02z" class="icon--fill"/>
      <path id="_420794752" d="M5.3 2.8a.2.2 0 0 1 .08-.1.18.18 0 0 1 .1-.03h.03c.02 0 .04.01.05.03.02 0 .03.02.04.04l.02.07-.01.07a.2.2 0 0 1-.07.1.18.18 0 0 1-.12.03h-.01a.14.14 0 0 1-.1-.07.15.15 0 0 1-.01-.07V2.8zm.16.01a.07.07 0 0 0-.03.03v.03h.03l.02-.03v-.02-.01s0-.01 0 0h-.02zm-.02.07zm0 0zm0 0zm0 0z" class="icon--fill"/>
    </g>
    <g id="_420794032">
      <path id="_420794824" d="M2.12 4.55a.44.44 0 0 0 .03 0l.05-.02c.23-.09.2-.25.15-.46a3.96 3.96 0 0 1-.04-.2c-.04-.44.17-.7.38-.93l.2-.26c.05-.09.09-.18.1-.29v-.13a.22.22 0 0 0-.05-.09.54.54 0 0 0-.29-.14 1.7 1.7 0 0 0-.55-.02l-.17.02c-.19.04-.33.18-.42.39-.1.23-.14.56-.13.99 0 .22.1.58.28.83.12.18.28.31.46.31zm.04.21h-.04c-.26 0-.47-.16-.63-.4-.2-.29-.31-.69-.32-.94a2.6 2.6 0 0 1 .14-1.08.82.82 0 0 1 .57-.52 1.74 1.74 0 0 1 .42-.04c.1 0 .25.01.4.04.15.04.3.1.4.21.04.05.08.11.1.18v.21a.93.93 0 0 1-.13.37c-.07.1-.14.2-.22.28-.18.21-.36.43-.33.78a1.46 1.46 0 0 0 .03.18c.07.3.13.54-.27.7l-.06.02-.03.01h-.03z" class="icon--fill"/>
      <path id="_420794896" d="M3.2 1.16a.2.2 0 0 0-.12.06.4.4 0 0 0-.1.16.42.42 0 0 0-.03.12l.01.11c.01.03.02.06.04.07l.05.04a.12.12 0 0 0 .03 0 .2.2 0 0 0 .13-.05.4.4 0 0 0 .1-.17.38.38 0 0 0 .02-.22c-.02-.06-.05-.1-.09-.11a.1.1 0 0 0-.03 0zm-.23-.07c.07-.06.15-.1.24-.1a.28.28 0 0 1 .08.02c.1.03.17.12.2.22.02.1.02.21-.02.33a.57.57 0 0 1-.15.23.36.36 0 0 1-.24.1.27.27 0 0 1-.09-.01.28.28 0 0 1-.12-.09.36.36 0 0 1-.07-.13.49.49 0 0 1-.02-.16c0-.06.02-.12.04-.17.03-.1.09-.18.15-.24z" class="icon--fill"/>
      <path id="_420795040" d="M2.54 1.3l-.02.02a.16.16 0 0 0-.04.07v.1l.02.01.02-.02a.15.15 0 0 0 .04-.07v-.08c0-.02-.01-.02-.02-.02zm-.15-.1a.2.2 0 0 1 .17-.06h.01c.07.02.12.06.14.13.02.05.03.11.01.18a.32.32 0 0 1-.08.15.2.2 0 0 1-.14.07h-.04a.19.19 0 0 1-.13-.13.32.32 0 0 1-.01-.18.33.33 0 0 1 .07-.15zm.1.3zm0 0zm0 0zm0 0z" class="icon--fill"/>
      <path id="_420794944" d="M2.12 1.43l-.02-.06-.02-.02v.01l-.02.03v.04c0 .03 0 .05.02.07l.01.01h.01l.02-.04v-.04zm.09-.14c.02.03.04.08.04.13v.08l-.03.07a.17.17 0 0 1-.05.05.13.13 0 0 1-.07.03.15.15 0 0 1-.13-.07.27.27 0 0 1-.04-.21c0-.03.02-.06.03-.08a.17.17 0 0 1 .05-.05.13.13 0 0 1 .07-.02c.05 0 .1.02.13.07z" class="icon--fill"/>
      <path id="_420794968" d="M1.72 1.53a.11.11 0 0 0-.02-.05l-.01.02v.04c0 .02.02.03.03.05v-.02-.04zm.1-.17c.02.04.05.08.06.13l.01.1-.03.09-.04.04a.15.15 0 0 1-.05.03c-.06.02-.11 0-.16-.04a.29.29 0 0 1-.09-.22l.02-.08a.19.19 0 0 1 .04-.06.15.15 0 0 1 .07-.04.11.11 0 0 1 .04 0c.04 0 .09.02.12.05z" class="icon--fill"/>
      <path id="_420794440" d="M1.4 1.76a.07.07 0 0 0-.03-.04h-.03s.01-.01 0 0v.02c0 .02.01.03.03.04h.02v-.02zm.05-.14a.2.2 0 0 1 .07.1v.06l-.01.07a.14.14 0 0 1-.1.07h-.02a.18.18 0 0 1-.1-.04.2.2 0 0 1-.07-.1.18.18 0 0 1-.01-.06l.01-.07a.14.14 0 0 1 .04-.04.13.13 0 0 1 .08-.03c.04 0 .08.01.11.04zm-.06.17zm0 0zm0 0zm0 0z" class="icon--fill"/>
    </g>
    <g id="_420794704">
      <path id="_420794344" d="M0 0h6.83v6.83H0z" class="icon--bkgd"/>
      <path id="_420794176" d="M.85.85h5.12v5.12H.85z" class="icon--bkgd"/>
    </g>
  </g>
</svg>