<svg xmlns="http://www.w3.org/2000/svg" width="655.36" height="655.36" fill-rule="evenodd" clip-rule="evenodd" image-rendering="optimizeQuality" shape-rendering="geometricPrecision" text-rendering="geometricPrecision" viewBox="0 0 6.83 6.83">
  <defs>
    <style>
      .icon--bkgd{fill:none}
      .icon--fill{fill:#212121}
    </style>
  </defs>
  <g id="Layer_x0020_1">
    <g id="_420780304">
      <path id="_420780568" d="M.96 1.5H5.97v2.17l-.09.01c-.57.1-.94.23-1.2.47-.25.24-.4.6-.54 1.1l-.02.07H2.71l-.02-.08a1.98 1.98 0 0 0-.5-1.01 2.58 2.58 0 0 0-1.25-.55l-.09-.02V1.51h.11zm4.8.22h-4.7v1.77c.62.15 1 .33 1.28.59.27.25.41.58.53 1.03h1.09c.14-.5.3-.85.58-1.11.27-.26.65-.41 1.22-.51V1.72z" class="icon--fill"/>
      <path id="_420780832" d="M1.13 2.04h.86c.08 0 .15.04.2.1.05.06.07.13.07.22v.06c0 .08-.02.16-.07.22a.25.25 0 0 1-.2.1H.86v-.38c0-.09.02-.16.06-.22.05-.06.13-.1.2-.1zm.86.2h-.86l-.04.03a.14.14 0 0 0-.02.09v.17h.92l.04-.02a.14.14 0 0 0 .02-.09v-.06a.14.14 0 0 0-.02-.09l-.04-.02z" class="icon--fill"/>
      <path id="_420780640" d="M5.7 2.25h-.87s-.02 0-.03.02a.14.14 0 0 0-.02.09v.06c0 .04 0 .07.02.09l.03.02h.93v-.17a.14.14 0 0 0-.03-.09l-.03-.02zm-.87-.21h.87c.08 0 .15.04.2.1.05.06.07.13.07.22v.38H4.83a.25.25 0 0 1-.2-.1.35.35 0 0 1-.07-.22v-.06c0-.09.03-.16.07-.22.05-.06.12-.1.2-.1z" class="icon--fill"/>
      <path id="_420780712" d="M.96 3.2h4.9v.22H.97z" class="icon--fill"/>
    </g>
    <g id="_420780064">
      <path id="_420780184" d="M0 0h6.83v6.83H0z" class="icon--bkgd"/>
      <path id="_420779512" d="M.85.85h5.12v5.12H.85z" class="icon--bkgd"/>
    </g>
  </g>
</svg>