<svg xmlns="http://www.w3.org/2000/svg" width="655.36" height="655.36" fill-rule="evenodd" clip-rule="evenodd" image-rendering="optimizeQuality" shape-rendering="geometricPrecision" text-rendering="geometricPrecision" viewBox="0 0 6.83 6.83">
  <defs>
  <style>
    .icon--bkgd{fill:none}
    .icon--fill{fill:#212121}
  </style>

  </defs>
  <g id="Layer_x0020_1">
    <g id="_420787984">
      <path id="_420788560" d="M5.2 3.78a.48.48 0 0 0-.76-.38l-.07.05-.07-.06a1.2 1.2 0 0 0-.21-.18l-.12-.07.1-.1a.95.95 0 0 0 .25-.92l-.04-.11.12-.02a.46.46 0 1 0-.53-.57l-.03.11-.1-.04a.98.98 0 0 0-.34-.06.92.92 0 0 0-.3.05l-.11.04-.03-.11a.47.47 0 0 0-.45-.34.46.46 0 0 0-.36.75c.06.09.16.14.26.17l.12.02-.03.1a.97.97 0 0 0-.04.26.94.94 0 0 0 .29.69l.1.09-.12.07a1.32 1.32 0 0 0-.2.17l-.07.06-.07-.05a.48.48 0 0 0-.3-.1.48.48 0 0 0-.03.95l.1.01v.1a1.47 1.47 0 0 0 .02.16l.02.07-.06.04a.47.47 0 0 0-.18.34c-.02.15.02.32.12.47.1.15.24.25.39.3.14.04.28.03.4-.05A.4.4 0 0 0 3 5.55l.04-.07.08.02a1.36 1.36 0 0 0 .45.02l.15-.02.07-.02.04.07a.45.45 0 0 0 .14.14c.11.08.26.09.4.05a.73.73 0 0 0 .38-.3c.1-.15.14-.32.13-.47a.47.47 0 0 0-.19-.35l-.05-.04.01-.06a1.13 1.13 0 0 0 .02-.17v-.09h.1a.48.48 0 0 0 .44-.48zm.02-.49a.69.69 0 0 1-.35 1.16v.04c.13.12.2.28.22.47.02.2-.03.4-.16.6a.94.94 0 0 1-.5.38c-.2.06-.41.04-.58-.07a.62.62 0 0 1-.16-.15 1.53 1.53 0 0 1-.55 0 .64.64 0 0 1-.16.15.67.67 0 0 1-.57.07.94.94 0 0 1-.5-.38.94.94 0 0 1-.17-.6.7.7 0 0 1 .22-.46v-.04a.7.7 0 1 1 .48-1.28 1.43 1.43 0 0 1 .08-.06 1.16 1.16 0 0 1-.25-.96.68.68 0 0 1-.24-1.1.68.68 0 0 1 1.1.2 1.14 1.14 0 0 1 .27-.04 1.13 1.13 0 0 1 .3.04.68.68 0 0 1 1.1-.2.68.68 0 0 1-.26 1.11 1.15 1.15 0 0 1-.24.94 1.42 1.42 0 0 1 .1.07.69.69 0 0 1 .82.11z" class="icon--fill"/>
      <circle id="_420788488" cx="2.95" cy="1.96" r=".11" class="icon--fill"/>
      <circle id="_420788368" cx="3.84" cy="1.96" r=".11" class="icon--fill"/>
      <path id="_420788176" d="M3.41 2.5l.19-.18a.32.32 0 0 0-.37 0l.18.19zm.3-.14l-.26.26a.05.05 0 0 1-.07 0l-.27-.26v-.02l-.01-.01.01-.05a.42.42 0 0 1 .6 0c.02.02.02.06 0 .08z" class="icon--fill"/>
      <path id="_420787912" d="M3.2 3.04a.07.07 0 0 0 .12.05.07.07 0 0 0 .02-.05v-.25h.11v.25a.17.17 0 0 1-.3.12.17.17 0 0 1-.05-.12h.1z" class="icon--fill"/>
      <path id="_420788224" d="M3.7 3.04a.17.17 0 0 1-.3.12.17.17 0 0 1-.06-.12v-.25h.11v.25a.07.07 0 0 0 .12.05.07.07 0 0 0 .02-.05h.1z" class="icon--fill"/>
    </g>
    <g id="_420787528">
      <path id="_420788344" d="M0 0h6.83v6.83H0z" class="icon--bkgd"/>
      <path id="_420787360" d="M.85.85h5.12v5.12H.85z" class="icon--bkgd"/>
    </g>
  </g>
</svg>