<svg xmlns="http://www.w3.org/2000/svg" width="655.36" height="655.36" fill-rule="evenodd" clip-rule="evenodd" image-rendering="optimizeQuality" shape-rendering="geometricPrecision" text-rendering="geometricPrecision" viewBox="0 0 6.83 6.83">
  <defs>
    <style>
      .fil0{fill:none} <!-- makes background clear -->
      .fil1{fill:blue}
      
      .icon--bkgd{fill:none}
      .icon--fill{fill:#212121}
    </style>
  </defs>
  <g id="Layer_x0020_1">
    <g id="_321134032">
      <path id="_321133888" d="M0 0h6.83v6.83H0z" class="icon--bkgd"/>
      <path id="_321134344" d="M.85.85h5.12v5.12H.85z" class="icon--bkgd"/>
    </g>
    <g id="_321133240">
      <path id="_321132832" d="M3.39 1.89c.54 0 1.04.2 1.4.54.35.34.58.8.58 1.31 0 .52-.23.98-.59 1.32-.35.33-.85.54-1.4.54-.54 0-1.03-.21-1.39-.54a1.8 1.8 0 0 1-.58-1.32c0-.51.22-.97.58-1.31.36-.33.85-.54 1.4-.54zm1.25.7c-.32-.3-.76-.49-1.25-.49-.5 0-.93.19-1.25.49-.32.3-.52.7-.52 1.15 0 .45.2.86.52 1.16.32.3.76.48 1.25.48s.93-.18 1.25-.48c.32-.3.51-.7.51-1.16 0-.45-.2-.86-.51-1.15z" class="icon--fill"/>
      <path id="_321133384" d="M5.4 3.2c.16 0 .3.06.4.16.1.1.17.23.17.38s-.06.29-.17.39a.58.58 0 0 1-.63.1l-.08-.03.02-.09a1.53 1.53 0 0 0 0-.74l-.02-.08.08-.04a.59.59 0 0 1 .23-.05zm.26.32a.37.37 0 0 0-.32-.1 1.72 1.72 0 0 1 0 .64.37.37 0 0 0 .32-.1c.06-.05.1-.13.1-.22a.31.31 0 0 0-.1-.22z" class="icon--fill"/>
      <path id="_321133096" d="M1.42 3.2a.6.6 0 0 1 .18.03l.1.03-.03.1a1.54 1.54 0 0 0 0 .77l.03.1-.1.02a.6.6 0 0 1-.58-.12.52.52 0 0 1-.17-.39c0-.15.07-.28.17-.38.1-.1.25-.16.4-.16zm.02.22h-.02c-.1 0-.19.03-.25.1a.31.31 0 0 0-.1.22c0 .1.04.17.1.23a.37.37 0 0 0 .27.1 1.74 1.74 0 0 1 0-.65z" class="icon--fill"/>
      <path id="_321133072" d="M4.22 4.57a.92.92 0 0 1-1.69 0l.2-.08a.7.7 0 0 0 1.3 0l.2.08z" class="icon--fill"/>
      <path id="_321133528" d="M3.55 2.5c-.27.03-.54-.06-.74-.21a.99.99 0 0 1-.43-.63l.21-.03c.02.16.15.35.34.49.17.12.38.2.6.17l.02.22z" class="icon--fill"/>
      <path id="_321133504" d="M3.35 2.08a.63.63 0 0 1-.37-.33 1.3 1.3 0 0 1-.12-.43l.21-.02c.02.12.04.25.1.36.05.1.12.18.25.22l-.07.2z" class="icon--fill"/>
      <path id="_321132904" d="M3.86 2.16c-.32-.1-.33-.45-.35-.74v-.17l.2-.02.02.18c0 .22.02.49.2.55l-.07.2z" class="icon--fill"/>
      <path id="_321133336" d="M2.91 3.49a.23.23 0 0 0-.46 0l-.2.01a.44.44 0 0 1 .31-.43.44.44 0 0 1 .57.42H2.9z" class="icon--fill"/>
      <path id="_321133000" d="M4.32 3.49a.23.23 0 0 0-.12-.2.23.23 0 0 0-.3.1.23.23 0 0 0-.04.1l-.21.01a.44.44 0 0 1 .05-.22.44.44 0 0 1 .6-.17.44.44 0 0 1 .23.38h-.2z" class="icon--fill"/>
    </g>
  </g>
</svg>